<?xml version='1.0' encoding='UTF-8'?>
<!DOCTYPE svg PUBLIC "-//W3C//DTD SVG 1.0//EN" "http://www.w3.org/TR/2001/REC-SVG-20010904/DTD/svg10.dtd ">
<svg y="0" x="0" height="12.5cm" viewBox="-53 -53 106 116 " width="10cm" xmlns="http://www.w3.org/2000/svg" >
<symbol id="fleur">
<g transform="scale(2) translate(0,-20)">
<path
d="M -1.2116,27.8178 C -1.2116,22.1752 -2.0914,20.4715 -4.5417,13.9804 C -5.7090,10.8879 -5.0241,7.1025 -2.8585,3.6009 C -2.0824,2.3460 -1.1136,1.2135 0,0 C 1.1136,1.2135 2.0824,2.3460 2.8585,3.6009 C 5.0241,7.1025 5.7090,10.8879 4.5417,13.9804 C 2.0914,20.4715 1.2116,22.1752 1.2116,27.8178 z M 1.7773,30.1835 C 1.7899,32.1913 2.7952,33.5181 4.5165,34.257 C 4.2948,34.9549 3.2566,36.3776 1.8314,36.2812 C 1.5499,37.7870 1.2822,38.6324 0,40 C -1.2822,38.6324 -1.5499,37.7870 -1.8314,36.2812 C -3.2566,36.3776 -4.2948,34.9549 -4.5165,34.257 C -2.7952,33.5181 -1.7899,32.1913 -1.7773,30.1835 z M 2.9221,27.6725 C 2.9221,21.7209 5.2387,17.8293 8.5007,16.6604 C 9.9492,16.1414 11.8076,16.3869 13.5193,18.1070 C 15.6379,20.2360 16.2551,26.1004 10.0355,27.2283 C 10.6938,26.2724 10.6546,24.1467 9.3215,23.4409 C 8.3311,22.9165 7.2090,23.1877 6.6462,23.5643 C 5.8225,24.1156 4.9171,25.6702 4.9672,27.6725 z M -2.9221,27.6725 C -2.9221,21.7209 -5.2387,17.8293 -8.5007,16.6604 C -9.9492,16.1414 -11.8076,16.3869 -13.5193,18.1070 C -15.6379,20.2360 -16.2551,26.1004 -10.0355,27.2283 C -10.6938,26.2724 -10.6546,24.1467 -9.3215,23.4409 C -8.3311,22.9165 -7.2090,23.1877 -6.6462,23.5643 C -5.8225,24.1156 -4.9171,25.6702 -4.9672,27.6725 z"/>
<!-- Two copies of the rect, otherwise a little bit is on the "outside" no matter what clip rule I use. -->
<rect height="3.218" width="15.846" x="-7.923" y="27.33077"/>
<rect height="3.218" width="15.846" x="-7.923" y="27.33077"/>
</g>
</symbol>
</svg>

