<?xml version="1.0" encoding="UTF-8" standalone="no"?>
<!-- Created with Inkscape (http://www.inkscape.org/) -->
<svg
   xmlns:dc="http://purl.org/dc/elements/1.1/"
   xmlns:cc="http://web.resource.org/cc/"
   xmlns:rdf="http://www.w3.org/1999/02/22-rdf-syntax-ns#"
   xmlns:svg="http://www.w3.org/2000/svg"
   xmlns="http://www.w3.org/2000/svg"
   xmlns:sodipodi="http://sodipodi.sourceforge.net/DTD/sodipodi-0.dtd"
   xmlns:inkscape="http://www.inkscape.org/namespaces/inkscape"
   id="svg1354"
   sodipodi:version="0.32"
   inkscape:version="0.44"
   width="286.04474"
   height="321.0224"
   sodipodi:docbase="C:\Documents and Settings\Lucile\Bureau"
   sodipodi:docname="Héraldique meuble Griffon.svg"
   version="1.0">
  <metadata
     id="metadata1359">
    <rdf:RDF>
      <cc:Work
         rdf:about="">
        <dc:format>image/svg+xml</dc:format>
        <dc:type
           rdf:resource="http://purl.org/dc/dcmitype/StillImage" />
        <dc:title>Grifon</dc:title>
        <dc:creator>
          <cc:Agent>
            <dc:title>Rinaldum</dc:title>
          </cc:Agent>
        </dc:creator>
        <dc:rights>
          <cc:Agent>
            <dc:title>GFDL GPL CCbySA Domaine publique etc</dc:title>
          </cc:Agent>
        </dc:rights>
        <dc:language>Français</dc:language>
        <dc:subject>
          <rdf:Bag>
            <rdf:li>Blason Griffon</rdf:li>
          </rdf:Bag>
        </dc:subject>
        <dc:description>Meuble Héraldique d'un Griffon l'original est sur l'armorial de Gelr</dc:description>
      </cc:Work>
    </rdf:RDF>
  </metadata>
  <defs
     id="defs1357" />
  <sodipodi:namedview
     inkscape:window-height="700"
     inkscape:window-width="1024"
     inkscape:pageshadow="2"
     inkscape:pageopacity="0.0"
     borderopacity="1.0"
     bordercolor="#666666"
     pagecolor="#ffffff"
     id="base"
     inkscape:zoom="1.0051974"
     inkscape:cx="133.13026"
     inkscape:cy="122.63914"
     inkscape:window-x="0"
     inkscape:window-y="0"
     inkscape:current-layer="svg1354" />
  <g
     id="g2265"
     style="fill:none;fill-opacity:1"
     inkscape:label="#Griffes"
     transform="translate(-82.79346,-192.5603)" />
  <g
     id="g4061"
     style="fill:white;fill-opacity:1"
     transform="translate(-130.5453,-200.5189)">
    <path
       sodipodi:nodetypes="ccccc"
       id="path2281"
       d="M 224.40076,233.89734 C 222.53333,232.745 222.29215,230.94215 225.10421,227.91801 C 233.02618,225.56463 229.89159,214.91884 231.08354,207.51794 C 238.73364,216.10814 240.89966,225.54205 236.35942,236.00769 L 224.40076,233.89734 z "
       style="fill:white;fill-opacity:1;fill-rule:evenodd;stroke:black;stroke-width:2;stroke-linecap:butt;stroke-linejoin:miter;stroke-miterlimit:4;stroke-dasharray:none;stroke-opacity:1" />
    <path
       sodipodi:nodetypes="ccsccccccccccc"
       id="path2283"
       d="M 239.17322,332.02871 C 249.03509,308.10235 270.40538,277.30881 252.18706,245.15255 C 249.63168,239.41511 312.36967,200.5195 313.73899,201.53861 C 318.55315,205.12152 263.26641,246.73532 263.26641,246.73532 L 264.84917,250.07671 L 308.11139,220.53178 C 301.58244,232.94474 281.65113,242.92092 265.55262,253.59396 C 282.22661,243.68914 298.80794,234.35555 314.44244,221.93868 C 316.7489,220.61823 321.65281,224.92835 319.71832,226.86284 C 311.43245,243.0458 265.50968,263.26815 265.2009,262.73882 C 279.04064,256.72822 293.39988,248.57419 306.70449,244.80083 C 308.91748,244.01544 310.33501,247.06979 308.11139,249.02153 C 294.94481,254.34124 281.08533,260.99944 268.0147,269.4216 C 273.2276,293.49072 238.71648,338.43509 239.17322,332.02871 z "
       style="fill:white;fill-opacity:1;fill-rule:evenodd;stroke:black;stroke-width:2;stroke-linecap:butt;stroke-linejoin:miter;stroke-miterlimit:4;stroke-dasharray:none;stroke-opacity:1" />
    <g
       style="fill:white;fill-opacity:1"
       id="g4053">
      <g
         id="g3162"
         style="fill:white;fill-opacity:1">
        <path
           sodipodi:nodetypes="ccccc"
           id="path2279"
           d="M 182.54545,310.92519 C 187.43923,316.21626 191.65415,321.84675 200.13171,325.34593 L 194.50411,347.50462 C 187.23512,343.43949 179.6144,330.30635 172.69714,319.01487 L 182.54545,310.92519 z "
           style="fill:white;fill-opacity:1;fill-rule:evenodd;stroke:black;stroke-width:2;stroke-linecap:butt;stroke-linejoin:miter;stroke-miterlimit:4;stroke-dasharray:none;stroke-opacity:1" />
        <path
           sodipodi:nodetypes="cccccccccccc"
           id="path2277"
           d="M 194.85583,372.82885 C 195.26556,353.33327 184.62418,347.73129 216.31108,290.87685 C 221.14761,286.12628 222.57787,281.95791 229.67664,266.25607 L 229.32491,255.35259 C 224.60721,250.6367 219.57663,246.18898 221.23523,236.00769 C 225.25852,232.62055 230.79742,226.42595 236.71115,236.35942 C 243.2693,231.75437 253.69599,230.58802 252.53879,219.12488 C 257.45967,219.92209 261.533,234.10094 245.856,249.02153 C 254.46322,261.36617 263.79707,273.14827 244.09738,307.40794 C 240.32586,316.06899 233.06021,322.10945 232.84217,333.43561 C 234.56848,337.66032 234.01526,344.92441 240.93185,342.22874 C 225.57318,364.99825 210.21451,365.69197 194.85583,372.82885 z "
           style="fill:white;fill-opacity:1;fill-rule:evenodd;stroke:black;stroke-width:2;stroke-linecap:butt;stroke-linejoin:miter;stroke-miterlimit:4;stroke-dasharray:none;stroke-opacity:1" />
        <path
           sodipodi:nodetypes="cccccccccccccccccccccscccccc"
           id="path3158"
           d="M 270.65264,408.8807 C 236.34242,401.82564 236.96632,439.20665 254.64914,449.15324 C 249.53952,446.83469 244.87863,446.75582 245.856,453.37395 C 240.5598,447.73071 232.42498,456.28061 225.45594,459.00155 C 211.28782,448.861 198.49269,463.29081 199.60412,466.56365 C 200.53095,471.68403 204.41487,472.52618 209.98002,468.49814 L 225.10421,462.51881 C 208.97376,475.33232 209.77618,479.6794 212.09037,483.2706 C 217.61033,487.70076 221.0289,484.77601 224.75249,482.91888 C 224.66191,474.29631 229.03125,474.59358 231.43527,470.96021 C 228.76711,478.14157 226.14416,485.30787 228.97319,490.65683 C 230.42619,493.9857 244.73374,494.6932 243.39393,487.4913 L 238.11805,474.47747 L 242.69048,472.01539 L 245.50428,478.69817 C 253.14611,486.3888 255.53025,475.90005 255.70431,473.77402 C 255.83635,470.928 256.30925,466.95429 255.00086,463.22226 L 261.68364,472.71884 C 265.14185,475.12159 265.49995,472.3575 266.25607,470.25676 L 263.09055,461.1119 L 270.12505,468.14641 C 275.91809,471.16838 277.99725,466.6432 277.51128,463.22226 C 277.23379,461.26891 271.88368,459.00155 271.88368,459.00155 L 275.75266,457.24293 L 281.02854,460.76018 C 284.78762,462.29166 285.09932,460.37577 284.19407,457.24293 C 281.97291,451.92649 272.59912,443.80568 270.8285,431.03939 C 269.701,423.29687 270.49202,416.19385 270.65264,408.8807 z "
           style="fill:white;fill-opacity:1;fill-rule:evenodd;stroke:black;stroke-width:2;stroke-linecap:butt;stroke-linejoin:miter;stroke-miterlimit:4;stroke-dasharray:none;stroke-opacity:1" />
        <path
           sodipodi:nodetypes="cccccccccccccccccccccccccccccccccccsccscscccccc"
           id="path3160"
           d="M 245.72288,386.32386 C 255.39656,393.81488 267.29196,386.30925 274.57293,409.95106 C 276.40478,424.48018 268.29532,432.99699 290.73891,456.21063 C 292.26699,458.34345 298.13157,468.39375 294.96694,480.58395 C 284.88403,485.30105 269.4892,488.17942 275.56776,498.49088 C 280.26301,502.7261 284.18743,500.79468 288.25184,499.98312 C 280.14099,508.06104 271.78906,512.38372 283.02898,519.87971 C 292.77816,523.59128 292.98022,510.72421 296.95659,505.20598 C 300.12864,511.92373 303.42226,517.72969 307.89972,514.65686 C 315.48234,510.44808 310.11075,499.7622 310.6355,492.02449 C 319.08798,494.22983 321.08163,487.99358 313.61999,482.3249 C 320.35757,485.73411 326.29553,481.23126 319.58896,475.6098 L 316.85318,472.37661 C 323.53121,472.61473 320.35267,468.97079 317.84801,467.65117 C 319.28401,464.23564 321.37505,461.09305 315.11223,454.46968 C 308.6827,446.84265 310.95048,439.21563 309.88938,431.5886 C 315.31922,446.15565 319.33218,464.06656 351.42351,458.6977 C 373.9984,453.59472 377.42651,438.7554 378.78132,426.36574 C 378.32547,393.34812 388.5417,381.20557 393.95247,372.14754 C 386.98866,368.94648 380.02486,371.87205 373.06105,389.80576 C 370.65285,364.52503 387.84949,348.29269 401.9111,330.61341 C 396.87446,326.67093 388.05833,329.61255 364.605,359.21476 C 374.45805,344.50752 387.50828,326.98954 398.92661,318.42675 C 414.39742,306.15719 412.37356,293.88762 415.59001,281.61806 C 407.07981,293.4325 402.44059,308.15017 389.22703,316.43709 C 377.62783,320.17298 372.09361,322.97579 369.08173,325.39055 C 386.59928,308.07883 397.95078,285.54968 406.88525,260.97535 C 416.97033,231.4715 410.53296,219.77283 412.35681,206.25973 C 408.05426,213.60652 409.94966,236.64886 405.89042,246.55032 C 396.35225,258.36815 385.39579,274.48386 377.27589,285.9024 C 371.5198,290.65575 354.29876,343.42412 355.90024,344.29231 C 352.75907,331.87323 383.49291,263.91704 394.69859,248.29127 C 406.50118,219.26453 394.36069,217.05403 391.21669,204.76748 C 395.45422,215.50361 396.58043,227.19707 392.21152,240.58134 C 378.35571,265.08544 363.7622,289.09773 355.65153,317.43192 C 352.94404,331.41268 346.52105,345.10763 349.21205,359.50366 C 349.45636,360.81067 365.94178,388.98386 366.34595,390.30318 C 352.40498,362.0495 339.37332,353.50413 336.99848,353.24578 C 336.99848,353.24578 331.82448,358.47264 335.25753,360.95571 C 347.44466,369.77048 352.58452,385.41156 361.12309,397.7644 C 353.54231,383.39768 343.91132,375.69156 333.01916,372.89366 C 329.97588,372.11192 334.76011,382.59325 334.76011,382.59325 C 349.53107,385.13158 365.54008,412.80278 356.64636,434.57309 C 355.03862,437.01267 348.9926,450.24931 333.01916,441.28819 C 324.01235,434.9851 319.14543,420.10464 312.62516,405.97174 C 303.82411,389.15593 285.65775,381.70543 270.84232,370.904 L 245.72288,386.32386 z "
           style="fill:white;fill-opacity:1;fill-rule:evenodd;stroke:black;stroke-width:2;stroke-linecap:butt;stroke-linejoin:miter;stroke-miterlimit:4;stroke-dasharray:none;stroke-opacity:1" />
      </g>
      <path
         style="fill:white;fill-opacity:1;fill-rule:evenodd;stroke:black;stroke-width:2;stroke-linecap:butt;stroke-linejoin:miter;stroke-miterlimit:4;stroke-dasharray:none;stroke-opacity:1"
         d="M 172.69714,383.73233 C 176.15321,393.93748 182.80147,398.81344 190.2834,399.9117 L 192.20397,399.17746 C 196.58466,412.18931 207.39822,401.36472 198.64205,397.86174 C 196.09818,396.84405 195.04233,393.37267 192.73537,391.2703 C 198.21296,393.40236 202.49018,395.12135 206.11104,400.96687 C 208.04166,402.13528 210.51222,402.44335 211.35301,404.02487 C 218.17388,416.85483 229.87563,400.0603 215.43742,397.62296 C 212.55519,397.1364 212.58599,394.3878 210.85934,392.52546 C 225.08797,394.65206 232.09602,403.99923 241.6353,410.81518 C 243.37025,403.40201 239.60065,396.53929 231.96285,390.06339 C 241.84657,391.10521 258.37084,396.8392 268.36643,400.61515 C 265.8944,392.82355 256.70906,387.59722 246.73532,383.55647 C 256.64975,383.25861 270.29885,387.98075 280.67681,394.63582 C 282.22317,379.95406 268.48552,377.48744 260.45261,373.88402 C 274.5074,373.28015 297.31226,376.84663 303.53896,377.753 C 309.07959,380.73718 294.41211,362.06246 274.34576,364.03571 C 290.15318,362.14367 305.7593,361.25815 319.71832,368.60814 C 327.94529,349.95916 301.89868,354.76051 285.24924,353.13223 C 298.42715,350.8069 318.90501,351.52323 337.30459,351.3736 C 341.38932,347.50105 317.3566,346.14648 290.52512,345.04255 C 290.03413,345.66447 325.57418,347.75482 344.69082,334.49079 C 347.1529,333.25975 349.26325,324.02696 343.98737,321.12522 C 330.62181,327.67847 291.22857,334.17407 291.22857,334.13906 L 349.61497,316.72865 C 353.18425,315.49348 349.77072,308.62731 348.03222,308.28725 C 328.06048,315.40882 310.45491,321.86425 289.11822,325.34593 C 329.37738,308.39659 364.98502,289.42846 366.49779,278.56646 C 366.94481,275.3568 364.05041,276.01482 360.16674,277.15956 C 355.72557,280.92669 299.38303,305.42386 302.83551,303.89068 C 334.27189,289.93041 369.92298,262.59503 365.79434,263.26641 C 365.63888,263.44694 302.93718,300.27545 300.37343,294.74582 C 302.72341,297.74858 390.69699,240.91206 381.62198,231.43526 C 378.6803,228.36334 332.03975,266.50251 305.29759,275.40093 C 307.12311,278.42333 379.94649,225.2374 375.81852,218.42143 C 374.88807,216.88511 304.72311,272.17685 303.89068,268.0147 C 308.30207,269.85278 380.283,210.11405 371.42195,203.64896 C 365.96634,199.6685 340.01666,228.6948 325.5218,240.75598 C 307.41493,252.40272 276.38109,267.78493 273.11472,279.7975 C 255.80963,335.47806 225.35165,369.85207 184.30407,374.76334 L 172.69714,383.73233 z "
         id="path1369"
         sodipodi:nodetypes="cccsccsscccccccccccccccccccscsccscscscccc" />
    </g>
  </g>
  <g
     id="g2269"
     style="fill:#e07f10;fill-opacity:1"
     inkscape:label="#Bec"
     transform="translate(-130.5453,-200.5189)">
    <g
       id="g2273"
       style="fill:#e07f10;fill-opacity:1">
      <g
         id="g4043"
         style="fill:#e07f10;fill-opacity:1">
        <path
           style="fill:#e07f10;fill-opacity:1;fill-rule:evenodd;stroke:black;stroke-width:2;stroke-linecap:butt;stroke-linejoin:miter;stroke-miterlimit:4;stroke-dasharray:none;stroke-opacity:1"
           d="M 172.69714,319.71832 L 182.19372,310.57346 C 174.36079,301.2223 167.29101,288.81853 160.38675,275.75266 C 169.19464,276.56249 171.7951,269.61302 177.26957,266.25607 C 181.52757,252.04317 172.05395,256.93188 169.17988,256.05604 C 172.60575,263.77613 164.77359,265.35546 158.2764,267.66297 C 163.01378,255.62569 171.35136,241.58831 160.03502,238.46977 C 157.62165,240.03079 153.06303,241.11509 158.62812,244.4491 C 162.76383,246.76299 151.19966,256.19674 151.24189,262.38709 C 145.92546,223.64629 138.10437,232.89777 133.3039,235.65597 C 136.20304,237.92824 141.66437,236.61343 140.33841,244.80083 C 141.95007,256.03677 140.04157,269.61949 146.66946,277.51128 C 147.45642,288.46454 145.05428,293.0396 143.15221,298.6148 C 139.86339,297.52334 136.37285,289.94565 136.46943,300.72515 C 137.52659,303.46692 145.64725,311.99232 154.40742,289.46994 L 172.69714,319.71832 z "
           id="path1367"
           sodipodi:nodetypes="cccccccccccccccc" />
        <path
           style="fill:#e07f10;fill-opacity:1;fill-rule:evenodd;stroke:black;stroke-width:2;stroke-linecap:butt;stroke-linejoin:miter;stroke-miterlimit:4;stroke-dasharray:none;stroke-opacity:1"
           d="M 131.54528,313.73899 C 132.38512,308.52656 142.49372,323.69697 152.64879,343.63564 C 149.05549,334.7599 154.64804,318.96377 149.13154,308.81484 C 154.74365,309.23754 159.35325,302.52542 160.38675,341.17357 C 161.3456,332.03917 174.55573,330.08558 175.51094,316.20107 C 184.52165,322.5456 180.44084,333.02394 169.17988,340.82184 C 150.62985,360.56545 180.18083,372.45388 184.30407,374.9392 L 172.34541,383.73233 L 154.40742,366.84952 C 153.82656,391.73153 144.14633,385.88913 140.69013,380.5668 C 151.36402,379.57421 149.65915,361.58544 145.36157,347.46955 C 131.63975,320.84291 134.14578,322.32074 131.54528,313.73899 z "
           id="path1365"
           sodipodi:nodetypes="cccccccccccc" />
        <path
           sodipodi:nodetypes="ccccsc"
           id="path1371"
           d="M 199.60412,263.26641 C 198.76723,260.37983 200.52527,257.98418 216.83867,258.34225 C 224.76543,259.29791 227.93126,262.97411 229.32491,267.66297 C 226.11751,280.67515 222.18718,288.14539 216.13521,292.81133 C 216.42215,288.94029 218.79925,273.84302 207.51794,262.56296 C 205.22724,260.27251 201.02169,261.20137 199.60412,263.26641 z "
           style="fill:#e07f10;fill-opacity:1;fill-rule:evenodd;stroke:black;stroke-width:2;stroke-linecap:butt;stroke-linejoin:miter;stroke-miterlimit:4;stroke-dasharray:none;stroke-opacity:1" />
        <path
           sodipodi:nodetypes="cccccsc"
           id="path1373"
           d="M 186.0627,259.57329 C 183.61351,254.87576 186.60756,251.055 190.63513,249.90085 C 215.32507,246.95748 223.83336,255.76947 230.02837,265.90435 C 227.22106,261.90104 229.36123,255.91043 229.50078,254.825 C 225.31525,250.15747 220.96602,245.69002 220.88351,236.00769 C 192.16424,235.41399 188.36592,241.84822 182.89717,248.84567 C 179.64924,253.00152 183.30523,258.84388 186.0627,259.57329 z "
           style="fill:#e07f10;fill-opacity:1;fill-rule:evenodd;stroke:black;stroke-width:2;stroke-linecap:butt;stroke-linejoin:miter;stroke-miterlimit:4;stroke-dasharray:none;stroke-opacity:1" />
      </g>
    </g>
  </g>
  <path
     style="fill:black;fill-opacity:1;fill-rule:evenodd;stroke:black;stroke-width:1px;stroke-linecap:butt;stroke-linejoin:miter;stroke-opacity:1"
     d="M 91.79912,34.34205 C 91.42896,38.22502 89.74207,46.31543 99.50904,45.53388 C 109.42883,42.41634 110.3116,45.99403 109.45734,50.01062 C 108.03175,54.55401 107.48108,57.48525 100.50387,55.73089 C 91.26807,49.82829 89.06317,37.57527 91.79912,34.34205 z "
     id="path4049"
     sodipodi:nodetypes="ccccc" />
  <path
     style="fill:#fbfbfb;fill-opacity:1;fill-rule:evenodd;stroke:black;stroke-width:1px;stroke-linecap:butt;stroke-linejoin:miter;stroke-opacity:1"
     d="M 99.50904,45.53388 C 98.21605,50.29569 100.04004,53.01483 103.48836,55.48218 C 107.29535,57.43084 107.32416,54.8457 107.9651,52.9951 C 103.70553,52.25132 101.22656,50.19048 104.23448,44.53905 L 99.50904,45.53388 z "
     id="path4051"
     sodipodi:nodetypes="ccccc" />
</svg>
