<?xml version="1.0" encoding="UTF-8" standalone="no"?>
<!-- Created with Inkscape (http://www.inkscape.org/) -->
<svg
   xmlns:dc="http://purl.org/dc/elements/1.1/"
   xmlns:cc="http://web.resource.org/cc/"
   xmlns:rdf="http://www.w3.org/1999/02/22-rdf-syntax-ns#"
   xmlns:svg="http://www.w3.org/2000/svg"
   xmlns="http://www.w3.org/2000/svg"
   xmlns:sodipodi="http://sodipodi.sourceforge.net/DTD/sodipodi-0.dtd"
   xmlns:inkscape="http://www.inkscape.org/namespaces/inkscape"
   id="svg5407"
   sodipodi:version="0.32"
   inkscape:version="0.44"
   width="631.95514"
   height="327.91776"
   version="1.0"
   sodipodi:docbase="C:\Documents and Settings\Samuel\Mes documents\blasons"
   sodipodi:docname="lion_passant.svg">
  <metadata
     id="metadata5412">
    <rdf:RDF>
      <cc:Work
         rdf:about="">
        <dc:format>image/svg+xml</dc:format>
        <dc:type
           rdf:resource="http://purl.org/dc/dcmitype/StillImage" />
      </cc:Work>
    </rdf:RDF>
  </metadata>
  <defs
     id="defs5410" />
  <sodipodi:namedview
     inkscape:window-height="998"
     inkscape:window-width="1214"
     inkscape:pageshadow="2"
     inkscape:pageopacity="0.0"
     guidetolerance="10.0"
     gridtolerance="10.0"
     objecttolerance="10.0"
     borderopacity="1.0"
     bordercolor="#666666"
     pagecolor="#ffffff"
     id="base"
     inkscape:zoom="0.52361111"
     inkscape:cx="265.22841"
     inkscape:cy="135.42694"
     inkscape:window-x="-4"
     inkscape:window-y="-4"
     inkscape:current-layer="layer2" />
<symbol id="lion" transform="scale(.1) translate(-300,-140)" >
  <g
     inkscape:groupmode="layer"
     id="layer6"
     inkscape:label="corps"
     style="opacity:1"
     transform="translate(-8.979625,-29.54435)">
    <path
       style="fill-opacity:1;fill-rule:evenodd;stroke:black;stroke-width:3;stroke-linecap:butt;stroke-linejoin:miter;stroke-miterlimit:4;stroke-dasharray:none;stroke-opacity:1;display:inline"
       d="M 272.35213,87.954255 C 279.6654,72.431895 288.83766,58.148845 309.35478,51.429055 C 301.91841,49.595945 294.7165,47.592315 280.46884,50.712875 C 282.61879,48.484755 283.62686,46.256645 288.1081,44.028525 C 301.07675,42.652115 311.94488,45.508755 323.20094,46.415795 C 315.42095,43.795685 307.90444,40.121695 300.76062,34.956905 C 315.4397,34.100955 327.73852,38.798925 340.62799,42.118705 C 340.1351,38.302935 336.17106,35.354955 330.60147,32.808365 C 338.73634,31.191765 347.30739,30.883695 357.33887,34.956905 L 366.41049,44.505975 C 368.0435,41.299425 365.8795,37.333465 364.50067,33.524545 C 375.97158,38.479255 377.3428,45.047285 380.49536,51.190325 C 380.84242,48.730675 380.59834,46.123235 383.36009,44.267255 C 385.34948,40.231395 387.33887,40.066005 389.32826,38.299085 C 387.7608,44.109155 386.29757,49.874565 389.08954,53.816325 C 392.24967,53.884275 394.75784,52.865625 396.01261,49.757965 C 397.81579,53.789585 398.80697,57.496405 397.44497,60.261945 C 406.42912,62.927415 415.52298,65.044345 425.13728,64.559025 C 441.97304,63.660455 459.94466,60.430115 472.88264,53.577595 C 489.6097,48.366595 500.01478,46.399815 508.69166,44.028525 C 529.21756,42.123315 543.96914,45.037515 560.7341,46.893245 C 582.42203,50.645365 589.90303,59.133135 600.8402,66.468845 C 606.72591,71.561685 612.46988,78.325605 615.87998,83.418445 C 621.17329,100.33326 618.58021,111.80352 613.73144,122.09219 C 611.56301,128.86606 609.75146,136.17525 605.13728,139.28051 C 596.41162,147.70969 586.64775,153.37034 576.01261,156.70757 C 563.28793,161.62909 550.5208,159.51611 535.42905,159.33356 C 518.09418,158.60478 497.32489,161.07168 483.38661,156.9463 C 468.57281,142.48728 448.33375,131.9739 426.56964,122.56964 C 438.73911,121.62033 449.86155,121.71805 457.60412,125.19564 C 476.3005,135.162 496.41392,138.04317 516.33091,141.90651 C 540.04862,145.5548 553.50554,144.62631 563.36009,140.71288 C 576.7231,136.41828 582.46638,134.8925 588.18767,129.25399 C 595.89388,120.63757 593.81779,109.01122 593.67839,97.980785 C 591.73067,83.293135 582.65404,80.389305 574.1028,76.495365 C 559.4083,65.008125 552.27374,65.058275 539.48741,63.842845 C 522.97886,64.042845 504.74971,66.111105 489.59351,69.811015 C 473.5019,75.403325 458.2215,81.830315 441.3707,85.566985 C 428.36642,93.207745 412.82673,94.932565 396.01261,93.683695 C 378.91517,94.437265 371.05146,88.595315 362.59086,83.179715 C 353.86972,76.094635 347.85119,71.916275 336.33091,69.811015 C 326.93794,68.309775 318.09471,67.629775 306.96752,68.617385 C 289.53339,70.828905 282.00087,80.951725 272.35213,87.954255 z "
       id="path5419"
       sodipodi:nodetypes="ccccccccccccccccccccccccccccccccccccccccccc" />
    <path
       style="fill-opacity:1;fill-rule:evenodd;stroke:black;stroke-width:3;stroke-linecap:butt;stroke-linejoin:miter;stroke-miterlimit:4;stroke-dasharray:none;stroke-opacity:1"
       d="M 138.58032,156.53591 C 112.36137,143.93179 106.12538,124.43055 85.299885,109.4202 C 83.736672,105.77528 82.951563,102.0331 84.962274,97.94144 C 86.728384,93.29295 91.013961,91.16392 95.428205,89.16356 C 97.582066,88.68634 97.995548,87.04887 97.453869,84.77462 C 92.72732,76.75527 88.00077,75.41831 83.274221,71.94542 C 77.870409,69.87311 77.633963,71.93469 76.522007,73.29586 C 77.887887,78.02756 78.839196,82.62106 77.534839,86.46268 C 77.499392,91.28328 74.954315,92.51869 71.795458,92.87728 C 63.997778,93.71099 63.078826,88.81243 60.316695,85.44984 C 61.882451,79.99915 60.902691,73.53026 60.316695,67.21887 C 60.814874,63.54437 57.76988,62.90687 55.252536,61.8171 C 47.121801,62.05473 42.144956,65.09581 38.034392,68.90692 C 37.796775,72.08923 37.163243,75.37051 40.397666,77.6848 C 45.01587,78.84489 48.931748,80.47319 50.863597,83.42418 C 51.582105,93.02917 47.560489,92.723 43.436162,92.20206 C 32.735161,86.21511 25.47693,89.49364 20.141027,95.57816 C 35.115673,102.89306 36.530981,110.20796 29.931736,117.52286 C 27.604696,123.88113 32.097127,122.89535 35.333506,123.26224 C 48.697146,113.01801 51.027437,116.10573 53.902093,118.53569 C 58.125161,124.81314 54.943162,127.59496 53.733287,131.3649 C 39.355481,129.21267 38.860467,135.19557 41.410498,142.84366 C 57.763587,149.77413 55.726455,153.0989 54.577314,157.02331 C 60.074736,164.01887 61.661601,162.21568 63.692802,161.41224 C 63.44911,156.22313 62.708097,150.70248 65.043245,147.2326 C 68.520758,145.00412 70.052341,146.6675 71.795458,147.90782 C 72.56406,150.69969 73.109749,153.42787 70.782626,155.33525 C 74.545966,155.68084 78.018577,156.3753 79.560503,159.38658 C 75.132089,160.47365 73.527133,162.6901 75.846786,166.4764 C 81.997245,166.31205 87.021102,167.43525 90.026434,170.86534 C 82.148845,171.20295 79.898121,173.79131 83.274221,178.63039 C 89.580795,173.65356 98.695396,178.08611 99.817143,182.68172 C 92.930289,183.29608 91.361965,186.9496 90.701655,191.12198 C 100.40057,186.53921 103.50187,195.88472 109.60785,198.88703 C 101.76056,197.54433 97.763126,199.44361 98.466701,205.30163 C 117.39568,204.30191 117.67201,208.44776 124.80033,210.7034 L 112.98396,219.14367 C 129.6603,217.92472 132.60182,217.4556 141.18936,223.42669 L 155.53284,210.39973 C 168.30956,193.2841 163.82927,176.82876 163.70748,157.36795 L 138.58032,156.53591 z "
       id="path3067"
       sodipodi:nodetypes="ccccccccccccccccccccccccccccccccccccccccc" />
    <path
       style="fill:#e20909;fill-opacity:1;fill-rule:evenodd;stroke:black;stroke-width:3;stroke-linecap:butt;stroke-linejoin:miter;stroke-miterlimit:4;stroke-dasharray:none;stroke-opacity:1"
       d="M 94.466124,79.02077 C 97.396639,79.08657 97.271076,76.6871 98.285752,74.24624 C 100.05096,69.48853 99.195054,65.01608 98.495516,62.54862 C 97.053297,56.34402 92.395077,56.71891 88.468991,56.103 C 95.526502,65.56014 89.734873,68.59271 87.275358,73.29133 L 94.466124,79.02077 z "
       id="path3954"
       sodipodi:nodetypes="cccccc" />
    <path
       style="fill:#e20909;fill-opacity:1;fill-rule:evenodd;stroke:black;stroke-width:3;stroke-linecap:butt;stroke-linejoin:miter;stroke-miterlimit:4;stroke-dasharray:none;stroke-opacity:1"
       d="M 53.902093,61.56389 C 54.223221,58.93149 54.809934,55.90589 53.564482,53.88325 C 50.472841,49.28956 45.991452,47.02879 39.638042,47.13103 C 31.221304,46.87364 29.396252,52.60869 25.542797,56.49973 C 36.835687,53.29855 37.96344,60.79751 41.15729,66.12163 L 53.902093,61.56389 z "
       id="path3956"
       sodipodi:nodetypes="cccccc" />
    <path
       style="fill:#e20909;fill-opacity:1;fill-rule:evenodd;stroke:black;stroke-width:3;stroke-linecap:butt;stroke-linejoin:miter;stroke-miterlimit:4;stroke-dasharray:none;stroke-opacity:1"
       d="M 22.757509,97.01301 C 16.349698,99.2196 13.09608,103.01112 11.194344,109.589 C 8.770638,117.4025 13.145132,124.60141 14.908061,131.78691 C 16.041423,121.01939 19.462674,117.87817 23.263925,116.00361 L 32.210608,115.5816 L 33.476648,106.88812 C 30.82507,102.67495 27.20947,99.4258 22.757509,97.01301 z "
       id="path3958"
       sodipodi:nodetypes="ccccccc" />
    <path
       style="fill:#e20909;fill-opacity:1;fill-rule:evenodd;stroke:black;stroke-width:3;stroke-linecap:butt;stroke-linejoin:miter;stroke-miterlimit:4;stroke-dasharray:none;stroke-opacity:1"
       d="M 41.663706,143.18127 C 41.496588,146.16131 41.619098,149.30225 37.527976,150.10229 C 28.007685,150.72412 27.765013,147.06397 23.432731,145.29133 C 21.501032,151.42029 22.75143,156.9707 28.243682,161.74985 C 41.185342,167.24021 48.021031,162.37568 55.168133,157.61413 C 55.903974,155.49934 55.556776,153.2861 53.81769,150.94631 L 48.669128,145.88215 L 41.663706,143.18127 z "
       id="path3960"
       sodipodi:nodetypes="cccccccc" />
    <path
       style="fill-opacity:1;fill-rule:evenodd;stroke:black;stroke-width:3;stroke-linecap:butt;stroke-linejoin:miter;stroke-miterlimit:4;stroke-dasharray:none;stroke-opacity:1"
       d="M 411.63049,165.69686 C 412.05367,169.08099 405.7932,174.56619 403.03632,176.6783 C 376.56831,184.83438 365.61639,198.53192 356.72332,212.96477 C 351.04743,238.44074 364.26808,246.47375 374.38911,257.36795 C 382.91902,264.02898 373.41503,273.34206 360.54295,283.15044 C 355.13181,288.87702 349.72067,286.74459 344.30953,286.49262 C 343.58568,277.68274 343.0857,267.96251 340.25118,265.24594 C 334.72422,260.50016 331.89574,262.14249 328.79229,263.81358 C 324.90848,268.60351 319.70519,271.83523 319.00449,277.89845 C 316.91556,283.68331 323.65661,287.48993 330.22465,293.89315 C 317.03666,294.57686 302.23468,293.83647 299.42889,303.68095 L 299.19016,307.50058 C 312.1308,302.28885 312.54608,313.77758 314.46868,323.25655 C 323.48119,317.72264 332.826,310.19485 340.01245,315.61729 C 337.01748,323.97171 337.34478,329.12889 338.58009,335.67033 C 340.04235,339.5098 341.02561,342.80494 345.26444,343.78705 L 349.08406,335.43161 C 361.90431,328.24634 361.74956,338.02839 367.2273,340.44487 C 365.69259,331.85071 363.01197,323.25654 368.18221,314.66238 C 376.16838,314.25499 378.59743,319.90992 379.64109,327.07617 C 380.94894,319.12563 384.54362,316.89218 389.66762,318.48201 C 390.14396,324.89826 392.94797,326.19364 396.5907,325.64382 C 401.25637,319.83713 397.89875,312.61884 398.73924,305.59076 C 398.92172,299.60431 405.4773,300.69908 411.15303,300.81623 C 414.09781,306.08423 412.52278,310.44827 412.58539,315.13983 C 416.22848,309.53834 418.90921,303.18834 416.88247,293.17697 C 422.40606,294.72465 425.1874,299.92867 426.909,306.54567 C 428.7956,299.6563 431.09337,293.10956 429.29627,283.15044 C 432.28852,283.27591 435.05607,285.42368 437.41298,291.26715 C 438.59161,283.48635 441.01645,276.04543 435.50316,266.43957 C 441.83274,268.78307 446.67988,269.34765 449.82677,267.87193 C 448.4376,260.95645 443.50386,259.94857 438.36789,259.27776 C 439.51948,253.66276 440.44262,247.99699 435.98062,241.13453 C 418.79524,239.43463 416.63217,236.20015 415.92757,231.58546 C 415.10539,219.5254 426.01669,215.28766 438.36789,212.00986 L 411.63049,165.69686 z "
       id="path4866"
       sodipodi:nodetypes="cccccccccccccccccccccccccccccccccccc" />
    <path
       style="fill:#e20909;fill-opacity:1;fill-rule:evenodd;stroke:black;stroke-width:3;stroke-linecap:butt;stroke-linejoin:miter;stroke-miterlimit:4;stroke-dasharray:none;stroke-opacity:1"
       d="M 328.31484,263.81357 C 324.93576,259.80481 321.02992,257.6397 316.3785,258.08413 C 300.21156,261.17151 302.94865,272.47803 300.3838,281.47936 C 304.60131,275.84383 308.81881,270.64179 313.03632,273.12392 L 320.19812,275.03373 L 328.31484,263.81357 z "
       id="path5753"
       sodipodi:nodetypes="cccccc" />
    <path
       style="fill:#e20909;fill-opacity:1;fill-rule:evenodd;stroke:black;stroke-width:3;stroke-linecap:butt;stroke-linejoin:miter;stroke-miterlimit:4;stroke-dasharray:none;stroke-opacity:1"
       d="M 302.05489,306.54567 L 293.57375,313.75184 C 293.14536,319.91986 293.41832,324.71934 295.13181,328.03108 L 305.15834,338.29633 C 301.40977,323.33301 304.77301,317.61503 313.7525,319.19819 L 310.88778,308.93294 L 302.05489,306.54567 z "
       id="path5755"
       sodipodi:nodetypes="ccccccc" />
    <path
       style="fill:#e20909;fill-opacity:1;fill-rule:evenodd;stroke:black;stroke-width:3;stroke-linecap:butt;stroke-linejoin:miter;stroke-miterlimit:4;stroke-dasharray:none;stroke-opacity:1"
       d="M 346.45807,341.16105 C 349.31363,348.25387 356.1786,355.85462 360.30422,355.96211 C 359.15907,350.02399 364.58875,344.26773 365.07876,338.77379 L 360.30423,333.28307 C 356.92524,333.13581 353.51589,332.86713 350.75515,335.19289 C 348.75871,336.80622 346.60685,338.31594 346.45807,341.16105 z "
       id="path5757"
       sodipodi:nodetypes="cccccc" />
    <path
       style="fill:#e20909;fill-opacity:1;fill-rule:evenodd;stroke:black;stroke-width:3;stroke-linecap:butt;stroke-linejoin:miter;stroke-miterlimit:4;stroke-dasharray:none;stroke-opacity:1"
       d="M 380.596,324.45018 C 384.53171,330.53735 379.60251,335.63952 378.44746,341.16105 C 385.4983,338.51548 394.6753,339.1558 395.15834,326.35999 C 391.00089,326.57439 390.28133,322.66334 389.19017,319.19819 C 387.55339,316.9577 385.23398,318.1303 382.98327,318.95946 L 380.596,324.45018 z "
       id="path5759"
       sodipodi:nodetypes="cccccc" />
    <path
       style="fill-opacity:1;fill-rule:evenodd;stroke:black;stroke-width:3;stroke-linecap:butt;stroke-linejoin:miter;stroke-miterlimit:4;stroke-dasharray:none;stroke-opacity:1"
       d="M 467.74069,144.18271 L 429.06694,122.69731 C 398.33467,120.37608 373.53893,121.84013 342.17039,128.42675 C 315.40686,133.73708 294.09462,143.47659 258.13856,141.31799 L 162.1704,150.86706 C 167.32552,172.37756 163.72463,188.96281 158.82822,204.81932 C 167.03697,196.05784 172.11048,194.35067 177.92636,190.97316 C 162.2253,199.7734 152.16835,216.57601 135.91045,227.73709 C 121.32483,238.18325 107.84271,247.36901 91.50727,253.04213 C 83.81192,253.97264 78.52171,253.21955 77.18366,249.69995 C 77.53197,240.61996 78.86331,229.18072 76.22875,227.25964 L 70.49931,226.30473 C 67.88744,238.72716 57.12854,238.44748 49.01389,237.28616 C 57.51512,244.06032 68.76886,249.98755 61.42769,261.63629 C 41.67949,275.97334 31.84508,270.11485 30.87066,282.64425 C 38.70481,285.38354 45.52424,288.90339 45.19427,297.92277 C 53.05687,285.70423 62.37708,285.14655 71.45422,282.64425 C 77.3901,281.32375 76.96783,286.36141 76.70621,291.23842 C 68.61836,292.69552 64.90023,297.89809 65.72477,306.99438 C 77.54114,303.733 86.03034,307.12595 93.41708,312.72383 C 96.29731,315.14212 96.5846,312.37451 97.71416,311.29147 L 95.80435,299.35513 C 95.26787,289.91366 100.90133,288.88575 107.26323,288.85115 C 106.14918,301.10579 110.12795,306.03948 119.19957,303.65221 C 118.06566,294.24244 120.57886,288.47977 134.00063,293.62568 C 136.08533,289.0103 136.04532,284.39491 134.95554,279.77953 C 144.18348,270.71518 147.50488,276.83908 152.62132,278.34717 C 155.18687,281.46439 153.19185,287.62199 152.14387,293.14823 C 156.38231,283.49264 162.08212,275.92474 170.76456,272.61773 C 172.34022,274.31727 171.38966,283.09026 169.80965,293.62568 C 175.71662,280.66716 181.92215,269.20144 190.34016,268.7981 C 193.62425,274.83755 191.20498,280.06223 190.34016,285.50897 C 197.76988,274.85502 204.71253,267.36707 210.87066,264.97847 C 214.17007,266.64159 212.2869,274.22766 211.34811,280.73444 C 215.92257,274.60666 224.3933,270.03739 223.28445,261.63629 C 223.2266,255.00407 225.93284,255.00568 229.0139,255.90685 C 233.60486,254.05403 236.35915,256.48676 237.13061,263.54611 C 237.73451,251.97123 243.59756,248.81101 250.49931,247.31269 C 254.56632,247.25702 254.39272,254.97583 254.79639,261.63629 C 257.22356,249.899 259.97208,238.48307 268.64254,232.98908 C 273.13817,230.45685 273.56332,237.4224 274.37199,243.49306 C 276.02705,232.46046 279.56288,225.56553 284.39851,221.53019 C 289.3665,218.48608 289.15184,224.51161 289.17305,230.12436 C 303.33516,187.0183 320.79096,185.89936 343.60276,179.03682 C 376.32578,167.5298 391.35472,164.58378 410.44626,163.28085 C 418.14965,181.16873 428.99909,196.72482 439.09347,211.02621 C 467.58876,245.82107 511.83936,238.27364 549.38526,248.74505 C 564.73666,257.6445 570.95666,268.17454 568.48336,280.25698 C 549.40686,277.79292 545.46756,282.8406 540.31366,288.85115 C 533.42836,292.28558 528.74426,290.67644 525.51256,294.10314 C 538.01556,299.23507 540.66076,305.07114 544.61066,310.81401 C 551.29196,301.06919 558.82986,301.6025 566.09616,298.87767 C 574.24196,299.68783 571.37266,304.87292 568.96086,307.47184 C 555.51026,302.78193 558.34656,311.54633 558.93436,318.45327 C 569.51906,317.25201 573.75536,323.86426 576.12266,332.77689 C 586.18456,331.80428 588.71156,324.91148 589.96876,317.02091 C 593.12176,317.79085 597.58156,315.07554 599.04046,320.36308 L 600.23406,327.28616 L 606.44096,327.52489 C 602.22816,311.81567 621.88506,314.50842 626.73276,317.49836 C 630.46986,315.88246 631.26036,312.58274 630.55236,308.42674 C 624.48786,303.55177 618.72516,297.62021 611.45416,296.96786 C 610.21296,287.13245 615.78066,284.10594 623.39056,283.1217 C 616.64626,279.01018 614.26586,271.92324 621.48076,258.29412 C 614.41986,258.81423 606.16526,256.94707 601.42766,262.11375 C 598.61826,259.94499 595.18276,258.13397 596.65316,253.51958 C 595.10236,250.31534 599.91666,250.58301 605.24736,251.13231 C 605.36146,247.94929 601.92846,244.76626 591.87866,241.58324 C 593.59396,237.83599 597.97096,236.26647 606.67966,238.24107 C 604.54936,234.25949 601.23046,230.46076 590.92366,227.73709 C 590.92106,225.70047 597.12586,222.42239 603.33746,219.14292 C 597.28556,219.07918 596.37496,213.50693 582.32956,222.00765 C 579.98226,214.41328 580.27576,208.46938 588.05896,207.20659 C 583.11556,204.77932 579.70856,200.3033 565.61866,210.07131 C 564.31386,204.90123 564.39196,200.12627 567.52846,196.22515 C 561.48076,196.6104 555.43296,197.06889 549.38526,202.43205 C 518.65826,196.69219 496.39966,181.27421 483.49666,155.16415 L 467.74069,144.18271 z "
       id="path6653"
       sodipodi:nodetypes="cccccccccccccccccccccccccccccccccccccccccccccccccccccccccccccccccccccccccccccc" />
    <path
       style="fill:#e20909;fill-opacity:1;fill-rule:evenodd;stroke:black;stroke-width:3;stroke-linecap:butt;stroke-linejoin:miter;stroke-miterlimit:4;stroke-dasharray:none;stroke-opacity:1"
       d="M 70.22303,226.64379 C 50.893608,211.49677 39.922099,217.96152 33.085857,231.37034 C 46.407981,226.48141 49.465377,229.69125 47.265505,236.4345 C 53.680107,237.18152 60.09471,238.04393 66.509312,234.40884 L 70.22303,226.64379 z "
       id="path7540"
       sodipodi:nodetypes="ccccc" />
    <path
       style="color:black;fill:#e20909;fill-opacity:1;fill-rule:evenodd;stroke:black;stroke-width:3;stroke-linecap:butt;stroke-linejoin:miter;marker:none;marker-start:none;marker-mid:none;marker-end:none;stroke-miterlimit:4;stroke-dasharray:none;stroke-dashoffset:0;stroke-opacity:1;visibility:visible;display:inline;overflow:visible"
       d="M 32.748246,282.01194 C 26.957781,287.7759 20.010225,293.34712 20.594262,302.60619 C 20.786079,313.07887 28.254639,315.26527 36.461964,317.46106 C 31.20549,304.34455 33.393872,296.14328 45.239841,293.82831 L 32.748246,282.01194 z "
       id="path8427"
       sodipodi:nodetypes="ccccc" />
    <path
       style="color:black;fill:#e20909;fill-opacity:1;fill-rule:evenodd;stroke:black;stroke-width:3;stroke-linecap:butt;stroke-linejoin:miter;marker:none;marker-start:none;marker-mid:none;marker-end:none;stroke-miterlimit:4;stroke-dasharray:none;stroke-dashoffset:0;stroke-opacity:1;visibility:visible;display:inline;overflow:visible"
       d="M 68.872587,305.64469 C 66.58392,311.38407 63.657434,317.12345 69.210198,322.86283 C 82.489551,336.54951 89.01669,334.62294 98.919936,336.02965 C 86.520869,328.8623 84.312795,320.2391 90.81728,310.37124 L 68.872587,305.64469 z "
       id="path8429"
       sodipodi:nodetypes="ccccc" />
    <path
       style="color:black;fill:#e20909;fill-opacity:1;fill-rule:evenodd;stroke:black;stroke-width:3;stroke-linecap:butt;stroke-linejoin:miter;marker:none;marker-start:none;marker-mid:none;marker-end:none;stroke-miterlimit:4;stroke-dasharray:none;stroke-dashoffset:0;stroke-opacity:1;visibility:visible;display:inline;overflow:visible"
       d="M 119.8518,301.25575 C 125.00354,308.12846 121.04597,314.17305 116.47569,320.16194 C 123.11249,317.33988 131.18414,318.82239 135.38189,308.68318 C 138.37537,304.55468 136.62524,299.07087 133.35623,293.15309 L 122.8903,291.80265 C 119.72538,294.09285 118.51701,297.16567 119.8518,301.25575 z "
       id="path8431"
       sodipodi:nodetypes="cccccc" />
    <path
       style="color:black;fill:#e20909;fill-opacity:1;fill-rule:evenodd;stroke:black;stroke-width:3;stroke-linecap:butt;stroke-linejoin:miter;marker:none;marker-start:none;marker-mid:none;marker-end:none;stroke-miterlimit:4;stroke-dasharray:none;stroke-dashoffset:0;stroke-opacity:1;visibility:visible;display:inline;overflow:visible"
       d="M 530.72398,297.20442 C 515.52882,309.13693 515.08441,320.60848 528.69831,331.64071 C 526.41918,316.86998 536.61234,314.57155 542.54035,308.00796 L 530.72398,297.20442 z "
       id="path8433"
       sodipodi:nodetypes="cccc" />
    <path
       style="color:black;fill:#e20909;fill-opacity:1;fill-rule:evenodd;stroke:black;stroke-width:3;stroke-linecap:butt;stroke-linejoin:miter;marker:none;marker-start:none;marker-mid:none;marker-end:none;stroke-miterlimit:4;stroke-dasharray:none;stroke-dashoffset:0;stroke-opacity:1;visibility:visible;display:inline;overflow:visible"
       d="M 559.42088,318.47389 C 549.34208,327.0573 553.32276,336.34369 561.10894,345.82035 C 560.46796,335.09727 568.44356,332.03336 575.6262,328.2646 C 571.86268,323.08973 568.42326,317.53675 559.42088,318.47389 z "
       id="path8435"
       sodipodi:nodetypes="cccc" />
    <path
       style="color:black;fill:#e20909;fill-opacity:1;fill-rule:evenodd;stroke:black;stroke-width:3;stroke-linecap:butt;stroke-linejoin:miter;marker:none;marker-start:none;marker-mid:none;marker-end:none;stroke-miterlimit:4;stroke-dasharray:none;stroke-dashoffset:0;stroke-opacity:1;visibility:visible;display:inline;overflow:visible"
       d="M 606.01116,326.57655 C 611.96623,327.00586 615.87728,331.06898 613.7762,345.82035 C 623.57117,341.81378 630.02485,334.22726 627.28063,316.78584 C 618.63384,316.93548 606.35268,309.81637 606.01116,326.57655 z "
       id="path8437"
       sodipodi:nodetypes="cccc" />
    <path
       style="color:black;fill:#e20909;fill-opacity:1;fill-rule:evenodd;stroke:black;stroke-width:3;stroke-linecap:butt;stroke-linejoin:miter;marker:none;marker-start:none;marker-mid:none;marker-end:none;stroke-miterlimit:4;stroke-dasharray:none;stroke-dashoffset:0;stroke-opacity:1;visibility:visible;display:inline;overflow:visible"
       d="M 619.85319,278.97344 C 626.51617,279.01473 633.363,278.19811 637.40895,290.45221 C 638.3975,285.15488 641.42559,280.5374 637.40895,273.57167 C 632.78257,267.69452 627.8852,262.25096 618.84036,263.44335 C 618.08739,268.62005 615.56009,273.79674 619.85319,278.97344 z "
       id="path8439"
       sodipodi:nodetypes="ccccc" />
  </g>
  <g
     inkscape:groupmode="layer"
     id="layer2"
     inkscape:label="tete"
     transform="translate(-8.979625,-29.54435)">
    <path
       style="opacity:1;fill-opacity:1;fill-rule:evenodd;stroke:black;stroke-width:3;stroke-linecap:butt;stroke-linejoin:miter;stroke-miterlimit:4;stroke-dasharray:none;stroke-opacity:1"
       d="M 226.74588,43.865213 C 228.73057,37.941446 231.28997,34.603849 234.17332,32.724061 C 239.01883,30.381178 242.82238,30.816818 246.3273,32.048839 C 253.8887,36.212704 253.05356,40.376569 254.42996,44.540434 C 255.20755,49.643512 253.44105,53.22013 252.06668,57.032029 C 250.87083,59.541481 248.42279,61.049188 244.97686,61.758578 L 232.48526,61.420967 L 244.80805,62.433799 C 245.11335,69.065489 246.09398,75.472068 251.72907,80.327164 L 258.48129,83.36566 C 253.32137,83.382438 248.4857,83.723465 245.98969,86.404156 C 245.26693,90.529019 248.34181,92.375304 252.06668,93.831591 C 253.87008,95.176417 255.78935,96.2895 258.48129,95.857255 C 255.33026,96.784623 252.17922,97.002886 249.02819,100.92141 C 251.36252,105.21229 256.27584,108.21367 262.195,110.71213 C 258.30016,110.47884 252.55304,109.01071 251.05385,110.37452 C 253.22879,114.25821 256.88811,115.91532 260.84456,117.12673 C 258.48964,118.02981 254.68548,118.44981 254.76757,120.16522 C 259.61269,125.06821 265.90711,129.10162 272.99854,132.65682 C 268.06703,131.77663 262.53587,130.2968 260.16934,131.9816 C 261.64417,137.62029 268.32784,141.39868 276.03704,144.8108 C 270.47562,143.34258 264.67496,141.27625 260.84456,144.13558 C 262.9114,150.50901 269.20017,152.6605 274.6866,155.61434 C 269.04752,154.68957 263.69029,154.32851 259.83173,156.96479 C 263.83636,162.31239 268.88241,166.35823 274.6866,169.45638 C 267.83401,167.3029 261.17028,166.66038 254.76757,168.10594 C 254.92333,173.30574 258.3648,177.4103 262.53261,181.27275 C 255.49368,176.44442 248.06349,172.3986 239.23748,171.14443 C 236.60452,174.47574 237.97911,179.99299 240.25031,185.9993 C 235.75385,180.21153 231.18456,174.58158 224.045,174.52054 C 220.93502,177.14994 219.05283,181.00713 218.64323,186.33691 C 216.67831,180.77409 213.94893,176.63101 208.85252,176.88382 C 204.15164,178.06667 203.53695,182.42766 202.77553,186.67453 C 201.07002,181.58344 201.01954,175.0442 196.02331,172.83249 C 190.67957,174.46604 188.11168,178.87543 184.88216,182.6232 C 186.05116,177.67158 189.10043,172.71995 186.57021,167.76833 C 180.93057,172.30555 174.53075,172.2817 168.00163,171.48205 C 171.84525,167.87146 174.80102,163.69587 173.74101,156.96479 C 167.65096,160.2153 156.64101,158.54591 146.73216,157.97762 C 161.37861,149.03403 179.39138,141.14439 178.12995,124.89177 C 185.99371,125.87674 192.20768,125.02862 196.02331,121.51567 C 191.00977,123.98395 184.81189,124.87311 178.46756,125.567 C 172.47765,123.50515 165.38553,124.74995 158.54853,125.22938 C 148.5998,123.21171 133.56576,134.52064 136.94145,114.76345 C 137.50413,111.38734 138.06682,109.36168 141.668,108.68646 C 150.958,114.32473 156.84745,113.16188 163.61269,113.75062 C 173.20862,115.91021 172.53203,110.8186 175.09145,108.01124 C 180.16024,98.387713 177.19491,91.576134 173.4034,85.053714 C 169.3571,77.583183 152.47154,84.378493 142.00561,84.040882 C 138.70938,83.714879 136.7657,82.442093 137.95428,78.976722 C 137.67442,74.925394 137.79691,70.874066 139.30472,66.822738 C 140.83312,64.72815 143.91702,63.670563 146.73216,62.433799 L 138.96711,64.459463 C 135.32232,60.858283 137.43429,57.257102 139.97994,53.655922 C 151.39195,48.568231 156.47134,51.92403 164.28791,51.630258 C 176.12234,51.808094 177.96978,46.99243 181.16844,42.852381 C 201.77638,37.085185 211.75955,40.42494 226.74588,39.476274 L 226.74588,43.865213 z "
       id="path2114"
       sodipodi:nodetypes="cccccccccccccccccccccccccccccccccccccccccccccccccccccccccc" />
    <path
       style="opacity:1;fill-opacity:1;fill-rule:evenodd;stroke:black;stroke-width:3;stroke-linecap:butt;stroke-linejoin:miter;stroke-miterlimit:4;stroke-dasharray:none;stroke-opacity:1"
       d="M 175.16484,53.459446 C 180.37423,50.738204 182.92447,52.005675 185.66882,52.981992 C 180.27171,55.161736 178.90258,58.286259 181.13301,63.008517 C 185.09408,67.482313 186.71354,65.31224 189.48845,65.634512 C 190.80232,64.124312 192.5424,62.989084 192.5919,58.950162 C 195.17602,60.920701 197.30402,63.1193 197.36644,66.350692 C 198.96781,61.633766 193.41004,59.499483 193.78553,58.233981 L 186.14628,52.981992 C 182.80201,51.560117 179.14571,51.698325 175.16484,53.459446 z "
       id="path3002"
       sodipodi:nodetypes="ccccccccc" />
    <path
       style="opacity:1;fill-opacity:1;fill-rule:evenodd;stroke:black;stroke-width:3;stroke-linecap:butt;stroke-linejoin:miter;stroke-miterlimit:4;stroke-dasharray:none;stroke-opacity:1"
       d="M 152.90803,112.34226 C 153.63348,109.04091 154.27908,105.68634 156.86048,103.6223 C 158.81234,103.71456 157.61834,105.47122 158.32677,107.11777 L 159.22375,113.0754 L 152.90803,112.34226 z "
       id="path3004"
       sodipodi:nodetypes="ccccc" />
    <path
       style="opacity:1;fill-opacity:1;fill-rule:evenodd;stroke:black;stroke-width:3;stroke-linecap:butt;stroke-linejoin:miter;stroke-miterlimit:4;stroke-dasharray:none;stroke-opacity:1"
       d="M 145.44336,102.5178 C 143.07594,103.88761 142.37322,106.20868 142.22055,108.84406 L 148.54681,111.11197 C 148.06083,108.24725 148.32157,105.38252 145.44336,102.5178 z "
       id="path3006"
       sodipodi:nodetypes="cccc" />
    <path
       style="opacity:1;fill-opacity:1;fill-rule:evenodd;stroke:black;stroke-width:3;stroke-linecap:butt;stroke-linejoin:miter;stroke-miterlimit:4;stroke-dasharray:none;stroke-opacity:1"
       d="M 143.05609,84.493928 C 144.21243,88.142325 146.35664,91.508474 149.74044,94.520453 C 152.10175,92.048413 152.02825,87.489389 152.24707,83.180931 L 143.05609,84.493928 z "
       id="path3008"
       sodipodi:nodetypes="cccc" />
    <path
       style="opacity:1;fill-opacity:1;fill-rule:evenodd;stroke:black;stroke-width:3;stroke-linecap:butt;stroke-linejoin:miter;stroke-miterlimit:4;stroke-dasharray:none;stroke-opacity:1"
       d="M 155.58925,82.942204 L 166.21259,81.987297 C 163.79085,85.812245 162.19622,90.464293 158.33461,92.849366 C 155.81997,90.257878 155.24789,86.803025 155.58925,82.942204 z "
       id="path3010"
       sodipodi:nodetypes="cccc" />
    <path
       style="opacity:1;fill:#e20909;fill-opacity:1;fill-rule:evenodd;stroke:black;stroke-width:3;stroke-linecap:butt;stroke-linejoin:miter;stroke-miterlimit:4;stroke-dasharray:none;stroke-opacity:1"
       d="M 177.79234,99.570972 C 175.68968,96.9767 173.23936,94.990821 169.35207,95.519644 C 157.87331,95.350839 147.02862,97.718333 134.91578,95.013228 C 123.5636,90.754428 115.01253,84.394791 112.63348,73.406146 C 111.41949,72.647209 110.32416,71.472988 108.24454,73.743756 C 106.88039,78.037649 107.35395,81.872118 107.73812,85.728935 C 109.93529,91.094526 114.09442,95.72438 119.89211,99.739777 C 125.15733,102.04303 129.6985,102.53613 134.07176,102.60947 L 168.00163,102.44066 L 175.59787,106.15438 L 177.79234,99.570972 z "
       id="path3012"
       sodipodi:nodetypes="ccccccccccc" />
    <path
       style="opacity:1;fill-opacity:1;fill-rule:evenodd;stroke:black;stroke-width:3;stroke-linecap:butt;stroke-linejoin:miter;stroke-miterlimit:4;stroke-dasharray:none;stroke-opacity:1"
       d="M 245.45432,39.225463 C 237.53773,33.5208 227.54936,40.306747 233.46914,52.898695"
       id="path3023"
       sodipodi:nodetypes="cc" />
    <path
       sodipodi:nodetypes="cc"
       id="path3025"
       d="M 245.45432,39.225463 C 237.53773,33.5208 227.54936,40.306747 233.46914,52.898695"
       style="opacity:1;fill-opacity:1;fill-rule:evenodd;stroke:black;stroke-width:3;stroke-linecap:butt;stroke-linejoin:miter;stroke-miterlimit:4;stroke-dasharray:none;stroke-opacity:1" />
  </g>
</symbol>
</svg>
