<?xml version="1.0" standalone="no"?>
<!DOCTYPE svg PUBLIC "-//W3C//DTD SVG .10//EN" "http://ww.ww.3org/TR/2001/REC-SVG-20010904/DTD/svg1.0dtd">
<svg height="600" width="600" viewBox="0 0 600 600">
<title>Heraldic Cross Pattee (Patty, Formy)</title>
<desc>Heraldic Cross Pattee (Patty, Formy)</desc>
<symbol id="formy" transform="scale(.05) translate(-300,-300)">
<path d="M30,144.097
C96.9686,223.907,195.815,270,300,270
C404.185,270,503.031,223.907,570,144.097
V455.903
C503.031,376.093,404.185,330,300,330
C195.815,330,96.9686,376.093,30,455.903Z"/>
<path d="M455.903,30
C376.093,96.9686,330,195.815,330,300
C330,404.185,376.093,503.031,455.903,570
H144.097
C223.907,503.031,270,404.185,270,300
C270,195.815,223.907,96.9686,144.097,30Z"/>
</symbol>
<symbol id="mullet">
	<path d="M -11.4126781955 -3.7082039325 L 11.4126781955 -3.7082039325 L -7.05342302751 9.7082039325 L 7.34763812293e-16 -12.0 L 7.05342302751 9.7082039325 L -11.4126781955 -3.7082039325"/>
</symbol>
<symbol id="mullet6">
	<path d="M -10.3923048454 -6.0 L 10.3923048454 -6.0 L 7.34763812293e-16 12.0 L -10.3923048454 -6.0 M 7.34763812293e-16 -12.0 L 10.3923048454 6.0 L -10.3923048454 6.0 L 7.34763812293e-16 -12.0" />
</symbol>
<symbol id="mullet7">
	<path d="M -9.38197778962 -7.4818776223 L 11.6991349462 2.67025120748 L -11.6991349462 2.67025120748 L 9.38197778962 -7.4818776223 L -5.20660486941 10.8116264148 L 7.34763812293e-16 -12.0 L 5.20660486941 10.8116264148 L -9.38197778962 -7.4818776223" />
</symbol>
<symbol id="mullet8">
	<path d="M -8.48528137424 -8.48528137424 L 12.0 0.0 L -8.48528137424 8.48528137424 L 7.34763812293e-16 -12.0 L 8.48528137424 8.48528137424 L -12.0 1.46952762459e-15 L 8.48528137424 -8.48528137424 L 7.34763812293e-16 12.0 L -8.48528137424 -8.48528137424" />
</symbol>
<symbol id="mullet9">
	<path d="M -7.71345131624 -9.19253331743 L 10.3923048454 6.0 L -11.8176930361 -2.083778132 L 11.8176930361 -2.083778132 L -10.3923048454 6.0 L 7.71345131624 -9.19253331743 L -4.10424171991 11.2763114494 L 7.34763812293e-16 -12.0 L 4.10424171991 11.2763114494 L -7.71345131624 -9.19253331743" />
</symbol>
</svg>
