<?xml version="1.0" standalone="no"?>
<!DOCTYPE svg PUBLIC "-//W3C//DTD SVG .10//EN" "http://ww.ww.3org/TR/2001/REC-SVG-20010904/DTD/svg1.0dtd">
<svg height="600" width="600" viewBox="0 0 600 600">
<title>Heraldic Cross Pattee (Patty, Formy)</title>
<desc>Heraldic Cross Pattee (Patty, Formy)</desc>
<symbol id="formy" transform="scale(.15) translate(-300,-300)">
<path d="M30,144.097
C96.9686,223.907,195.815,270,300,270
C404.185,270,503.031,223.907,570,144.097
V455.903
C503.031,376.093,404.185,330,300,330
C195.815,330,96.9686,376.093,30,455.903Z"/>
<path d="M455.903,30
C376.093,96.9686,330,195.815,330,300
C330,404.185,376.093,503.031,455.903,570
H144.097
C223.907,503.031,270,404.185,270,300
C270,195.815,223.907,96.9686,144.097,30Z"/>
</symbol>
<symbol id="pommee" transform="scale(.015) translate(-3000,-3000)">
<path d="M2700,3300
L1300,3300
C1192.82,3485.64,994.744,3600,780.385,3600
C449.014,3600,180.385,3331.37,180.385,3000
C180.385,2668.63,449.014,2400,780.385,2400
C994.744,2400,1192.82,2514.36,1300,2700
L2700,2700
L2700,1300
C2514.36,1192.82,2400,994.744,2400,780.385
C2400,449.014,2668.63,180.385,3000,180.385
C3331.37,180.385,3600,449.014,3600,780.385
C3600,994.744,3485.64,1192.82,3300,1300
L3300,2700
L4700,2700
C4807.18,2514.36,5005.26,2400,5219.62,2400
C5550.99,2400,5819.62,2668.63,5819.62,3000
C5819.62,3331.37,5550.99,3600,5219.62,3600
C5005.26,3600,4807.18,3485.64,4700,3300
L3300,3300
L3300,4700
C3485.64,4807.18,3600,5005.26,3600,5219.62
C3600,5550.99,3331.37,5819.62,3000,5819.62
C2668.63,5819.62,2400,5550.99,2400,5219.62
C2400,5005.26,2514.36,4807.18,2700,4700Z"/>
</symbol>
<symbol id="bottony" transform="scale(.17) translate(-250,-250)">
<path transform="translate(15,15)" 
 d="M436.75,202c-6.465,0-12.487,1.881-17.564,5.115
c2.121-4.337,3.314-9.211,3.314-14.365c0-18.088-14.662-32.75-32.75-32.75
c-18.087,0-32.75,14.662-32.75,32.75c0,6.225,1.737,12.044,4.753,17
 H259.75
 V107.747c4.956,3.016,10.775,4.753,17,4.753c18.088,0,32.75-14.663,32.75-32.75
c0-18.087-14.662-32.75-32.75-32.75c-5.153,0-10.027,1.194-14.365,3.315
c3.234-5.077,5.115-11.1,5.115-17.565
 C267.5,14.663,252.838,0,234.75,0
 C216.663,0,202,14.663,202,32.75c0,6.465,1.881,12.488,5.115,17.564
 C202.777,48.194,197.904,47,192.75,47
 C174.663,47,160,61.663,160,79.75c0,18.087,14.663,32.75,32.75,32.75
c6.225,0,12.044-1.737,17-4.753
 V209.75
 H107.747c3.016-4.956,4.753-10.775,4.753-17c0-18.088-14.663-32.75-32.75-32.75
 C61.663,160,47,174.662,47,192.75c0,5.154,1.194,10.027,3.315,14.365
 C45.238,203.881,39.215,202,32.75,202
 C14.663,202,0,216.662,0,234.75c0,18.087,14.663,32.75,32.75,32.75
c6.465,0,12.488-1.881,17.564-5.115
 C48.194,266.723,47,271.596,47,276.75c0,18.087,14.663,32.75,32.75,32.75
c18.087,0,32.75-14.663,32.75-32.75c0-6.225-1.737-12.044-4.753-17
 H209.75v102.003c-4.956-3.016-10.775-4.753-17-4.753
c-18.087,0-32.75,14.663-32.75,32.75c0,18.088,14.663,32.75,32.75,32.75
c5.154,0,10.027-1.193,14.365-3.314c-3.234,5.077-5.115,11.1-5.115,17.564
c0,18.088,14.663,32.75,32.75,32.75c18.088,0,32.75-14.662,32.75-32.75
c0-6.465-1.881-12.487-5.115-17.564c4.338,2.121,9.212,3.314,14.365,3.314
c18.088,0,32.75-14.662,32.75-32.75c0-18.087-14.662-32.75-32.75-32.75
c-6.225,0-12.044,1.737-17,4.753
 V259.75h102.003c-3.016,4.956-4.753,10.775-4.753,17
c0,18.087,14.663,32.75,32.75,32.75c18.088,0,32.75-14.663,32.75-32.75
c0-5.154-1.193-10.027-3.314-14.365c5.077,3.234,11.1,5.115,17.564,5.115
c18.088,0,32.75-14.663,32.75-32.75
 C469.5,216.662,454.838,202,436.75,202z"/>
</symbol>
<symbol id="mullet" transform="scale(3.3)">
	<path d="M -11.4126781955 -3.7082039325 L 11.4126781955 -3.7082039325 L -7.05342302751 9.7082039325 L 7.34763812293e-16 -12.0 L 7.05342302751 9.7082039325 L -11.4126781955 -3.7082039325"/>
</symbol>
<symbol id="mullet6" transform="scale(3.3)">
	<path d="M -10.3923048454 -6.0 L 10.3923048454 -6.0 L 7.34763812293e-16 12.0 L -10.3923048454 -6.0 M 7.34763812293e-16 -12.0 L 10.3923048454 6.0 L -10.3923048454 6.0 L 7.34763812293e-16 -12.0" />
</symbol>
<symbol id="mullet7" transform="scale(3.3)">
	<path d="M -9.38197778962 -7.4818776223 L 11.6991349462 2.67025120748 L -11.6991349462 2.67025120748 L 9.38197778962 -7.4818776223 L -5.20660486941 10.8116264148 L 7.34763812293e-16 -12.0 L 5.20660486941 10.8116264148 L -9.38197778962 -7.4818776223" />
</symbol>
<symbol id="mullet8" transform="scale(3.3)">
	<path d="M -8.48528137424 -8.48528137424 L 12.0 0.0 L -8.48528137424 8.48528137424 L 7.34763812293e-16 -12.0 L 8.48528137424 8.48528137424 L -12.0 1.46952762459e-15 L 8.48528137424 -8.48528137424 L 7.34763812293e-16 12.0 L -8.48528137424 -8.48528137424" />
</symbol>
<symbol id="mullet9" transform="scale(3.3)">
	<path d="M -7.71345131624 -9.19253331743 L 10.3923048454 6.0 L -11.8176930361 -2.083778132 L 11.8176930361 -2.083778132 L -10.3923048454 6.0 L 7.71345131624 -9.19253331743 L -4.10424171991 11.2763114494 L 7.34763812293e-16 -12.0 L 4.10424171991 11.2763114494 L -7.71345131624 -9.19253331743" />
</symbol>
<symbol id="goute">
	<path transform="scale(9) translate(-5,-10)" d="M5,5 c0,4 -3,8 0,8 c3,0 0,-4 0,-8 z" />
</symbol>
</svg>
