<?xml version="1.0" encoding="UTF-8" standalone="no"?>
<!-- Created with Inkscape (http://www.inkscape.org/) -->
<svg
   xmlns:dc="http://purl.org/dc/elements/1.1/"
   xmlns:cc="http://web.resource.org/cc/"
   xmlns:rdf="http://www.w3.org/1999/02/22-rdf-syntax-ns#"
   xmlns:svg="http://www.w3.org/2000/svg"
   xmlns="http://www.w3.org/2000/svg"
   xmlns:sodipodi="http://sodipodi.sourceforge.net/DTD/sodipodi-0.dtd"
   xmlns:inkscape="http://www.inkscape.org/namespaces/inkscape"
   id="svg1905"
   sodipodi:version="0.32"
   inkscape:version="0.44"
   width="418"
   height="507"
   version="1.0"
   sodipodi:docbase="C:\Documents and Settings\Samuel\Mes documents\blasons"
   sodipodi:docname="Lion_rampant.svg">
  <metadata
     id="metadata1910">
    <rdf:RDF>
      <cc:Work
         rdf:about="">
        <dc:format>image/svg+xml</dc:format>
        <dc:type
           rdf:resource="http://purl.org/dc/dcmitype/StillImage" />
      </cc:Work>
    </rdf:RDF>
  </metadata>
  <defs
     id="defs1908" />
  <sodipodi:namedview
     inkscape:window-height="998"
     inkscape:window-width="1218"
     inkscape:pageshadow="2"
     inkscape:pageopacity="0.0"
     guidetolerance="10.0"
     gridtolerance="10.0"
     objecttolerance="10.0"
     borderopacity="1.0"
     bordercolor="#666666"
     pagecolor="#ffffff"
     id="base"
     inkscape:zoom="0.74358974"
     inkscape:cx="228.20058"
     inkscape:cy="214.22957"
     inkscape:window-x="-4"
     inkscape:window-y="-4"
     inkscape:current-layer="svg1905"
     showguides="true"
     inkscape:guide-bbox="true" />
<symbol id="lion">
 <g transform="translate(-40,-50) scale(.18)">
  <path
     style="fill:#fcef3c;fill-rule:evenodd;stroke:black;stroke-width:1px;stroke-linecap:butt;stroke-linejoin:miter;stroke-opacity:1;fill-opacity:1"
     d="M 292.34384,221.69961 C 288.28303,210.72343 284.56871,199.48233 287.59616,186.73409 L 296.33754,190.76857 C 289.77892,180.91823 287.40376,167.75875 289.81034,156.11537 C 292.49229,157.56841 297.88145,162.51467 303.06168,165.21685 C 296.91814,151.76857 300.16384,138.3203 299.69961,124.87202 L 297.68237,116.13064 L 304.60345,115.9337 C 293.7094,103.12827 295.93663,82.937771 283.75862,73.571625 L 290.28581,65.027192 C 291.71076,62.337537 289.87404,59.647881 288.94099,56.958226 C 285.64881,49.197762 279.13247,47.410132 273.47547,44.37931 L 266.07892,47.544433 L 257.33754,56.285813 C 241.55302,52.626931 234.93083,52.894759 227.75133,52.923744 L 219.00995,57.63064 L 214.30306,63.682364 L 212.95823,69.734088 L 192.1134,79.820295 C 191.3323,81.948479 189.92532,84.285288 192.78581,85.199606 C 195.11409,86.246639 197.35441,87.410954 198.36207,90.218815 C 197.08206,93.028504 196.31486,95.838193 196.8203,98.647882 C 197.15548,101.67723 197.45682,104.71503 199.5388,107.30768 C 223.37887,101.29914 215.45693,98.776535 224.55736,98.479779 C 229.75817,98.694769 231.65082,99.139357 233.97116,101.84185 L 235.34483,107.19232 C 231.46884,106.59824 227.59284,107.00587 223.71685,104.6996 C 216.51038,104.07992 211.01376,107.43423 205.56168,110.75133 C 182.78029,125.00968 136.40972,110.4276 178.02155,90.173079 C 148.65972,88.185997 132.38008,128.00236 169.17674,131.9781 C 185.78073,133.20931 188.95355,127.80126 203.22017,122.82594 C 207.39677,123.87777 206.30787,130.92077 208.25134,131.19033 C 209.25733,133.7954 211.75674,135.07514 214.02453,136.41842 C 221.65573,136.11774 227.73906,136.82874 229.09616,139.66512 C 230.40578,141.77683 229.62296,142.84232 228.42375,143.69961 C 226.08301,147.55549 222.73616,150.40525 218.4937,152.3594 C 213.58986,153.21117 208.68602,152.55137 203.78217,152.20326 C 195.09437,147.12733 191.29354,142.0514 187.56266,136.97547 C 187.31958,142.86045 187.40396,150.08212 189.62069,153.50729 C 181.87961,153.36561 174.73289,155.30417 168.25961,159.59981 C 155.56429,167.25659 143.05083,179.25795 132.1462,189.89922 C 123.76153,193.852 115.63626,198.97209 106.04444,197.49271 C 88.919152,188.91766 97.914741,179.70356 100.66513,173.95823 C 94.373843,174.30352 91.793846,179.90757 89.274878,187.16877 C 88.869335,193.31411 88.992113,198.61857 92.358424,204.13527 C 99.36006,210.40186 103.99509,210.05376 108.49636,210.9002 C 119.36991,210.40698 129.3832,208.62336 138.99271,206.23409 C 132.13578,210.16065 129.91201,212.25718 129.30039,214.93468 C 153.46587,218.68886 162.92981,210.02124 179.73143,207.53813 C 176.23135,212.57978 170.71062,217.91009 171.26857,222.37202 C 199.54744,223.91323 221.4084,210.77059 230.4002,208.48906 C 226.70458,212.49487 223.28274,216.43222 227.03813,218.57527 C 239.28678,218.8334 254.74419,207.99557 258.05074,204.88926 C 268.29147,209.6533 279.00633,217.33648 292.34384,221.69961 z "
     id="path1932"
     sodipodi:nodetypes="cccccccccccccccccccccccccccccccccccccccccccccccccccccc" />
  <path
     style="fill:white;fill-rule:evenodd;stroke:black;stroke-width:1px;stroke-linecap:butt;stroke-linejoin:miter;stroke-opacity:1;fill-opacity:1"
     d="M 231.98276,113.46983 C 226.07694,113.2677 219.83689,113.23006 211.30603,117.84051 C 212.82144,119.23148 214.42966,121.42793 216.34914,121.20259 L 221.89655,121.20259 C 228.18756,119.35724 231.06176,116.65768 231.98276,113.46983 z "
     id="path1934"
     sodipodi:nodetypes="ccccc" />
  <path
     style="fill:#e20909;fill-rule:evenodd;stroke:black;stroke-width:1px;stroke-linecap:butt;stroke-linejoin:miter;stroke-opacity:1;fill-opacity:1"
     d="M 225.93104,109.09913 L 215.84483,108.42672 C 205.99012,113.56193 196.47882,118.60662 184.91379,119.52155 C 166.55803,120.32236 146.59208,108.85196 168.43965,93.465516 C 136.98739,105.70679 148.57196,132.34209 181.88793,128.43103 C 203.42537,119.41462 211.25116,115.5431 225.93104,109.09913 z "
     id="path1936"
     sodipodi:nodetypes="cccccc" />
  <path
     style="fill:#fcef3c;fill-rule:evenodd;stroke:black;stroke-width:1px;stroke-linecap:butt;stroke-linejoin:miter;stroke-opacity:1;fill-opacity:1"
     d="M 164.40517,155.66379 C 143.55936,140.82501 129.33457,122.87045 123.72414,100.86207 C 124.84484,97.493642 127.0862,94.816741 130.44828,92.793103 L 130.78448,88.086206 C 128.03076,86.35717 125.70485,84.200319 124.73276,80.689655 C 123.58689,75.322935 120.15273,71.100362 117.33621,66.568965 C 113.62613,63.109572 110.08115,63.253833 107.25,62.870689 C 108.06244,68.362068 107.18538,73.853448 106.24138,79.344827 C 105.2274,83.93251 103.55706,87.645052 101.19827,90.439654 L 106.91379,98.50862 L 107.75431,102.20689 L 99.349138,101.87069 C 97.588875,100.72778 97.886847,99.070314 97.836207,97.5 L 99.517241,91.112069 C 99.504362,88.372819 97.55988,86.59937 95.818966,84.724137 L 90.439655,84.387931 C 85.149435,76.522478 76.778019,78.414148 68.922414,78.672413 C 68.297863,79.840965 67.184567,80.520773 68.25,83.37931 L 75.646551,90.775861 L 75.982759,102.2069 C 78.298909,104.42333 81.089705,106.24421 86.068966,106.24138 C 89.130477,111.70388 87.346288,112.96678 83.715517,112.62931 C 80.290863,112.00697 80.071359,108.8205 78.672414,106.57759 C 75.078093,105.15903 73.324477,105.21303 71.948276,105.56897 L 66.568965,111.62069 C 61.871125,112.19236 58.715118,113.17838 55.810345,115.99138 C 56.335025,119.44005 59.165646,120.0063 61.357758,121.37069 C 63.820782,121.32213 65.892685,122.44695 67.913793,123.72414 C 68.747134,125.66092 70.241028,127.43553 71.948276,128.93535 C 75.902216,127.69557 79.643699,126.8807 82.706897,127.42241 C 85.594409,128.34025 85.980507,129.64292 83.043104,131.4569 C 77.000067,131.2371 75.292707,133.18515 73.62931,135.15517 C 74.525859,138.74138 74.525864,141.65517 73.62931,143.89655 C 70.491379,149.99627 67.353448,152.75964 64.215517,156.33621 C 69.112879,156.60507 73.885083,156.62362 78.336207,156 C 80.590818,154.90578 82.900974,153.92264 84.724138,151.96552 C 87.577447,151.96552 89.458036,151.96552 91.448276,151.96552 C 92.905173,149.97653 94.362069,147.56236 95.818966,144.23276 C 98.476526,143.90431 100.85632,142.67313 105.23276,147.93103 C 104.9586,153.44309 103.82338,158.66814 102.2069,163.73276 C 106.36295,164.95222 109.68913,162.43729 112.96552,159.69828 C 114.29919,165.8352 113.2858,169.82295 112.62931,175.1638 C 117.56034,172.13793 120.92241,171.12931 122.71552,172.13793 L 126.41379,187.93965 C 139.72965,180.30964 151.09744,164.1731 164.40517,155.66379 z "
     id="path1938"
     sodipodi:nodetypes="ccccccccccccccccccccccccccccccccccccccccccccc" />
  <path
     style="fill:#e20909;fill-rule:evenodd;stroke:black;stroke-width:1px;stroke-linecap:butt;stroke-linejoin:miter;stroke-opacity:1;fill-opacity:1"
     d="M 109.60345,82.370689 C 113.30173,81.130767 117,81.033043 120.69828,82.034482 L 120.69828,78.840517 C 118.17204,73.300142 114.76331,69.083493 110.44397,66.232758 C 110.77356,71.764508 111.03079,77.278169 109.60345,82.370689 z "
     id="path1940"
     sodipodi:nodetypes="ccccc" />
  <path
     style="fill:#e20909;fill-rule:evenodd;stroke:black;stroke-width:1px;stroke-linecap:butt;stroke-linejoin:miter;stroke-opacity:1;fill-opacity:1"
     d="M 85.900862,85.396551 C 83.451517,88.447242 80.548902,89.231579 77.663793,90.103448 C 76.496973,86.904531 74.403845,84.168767 71.443966,81.866379 C 73.990144,81.28694 76.590987,80.789496 80.017242,81.530172 C 82.17369,82.23324 84.5875,82.164225 85.900862,85.396551 z "
     id="path1942"
     sodipodi:nodetypes="ccccc" />
  <path
     style="fill:#e20909;fill-rule:evenodd;stroke:black;stroke-width:1px;stroke-linecap:butt;stroke-linejoin:miter;stroke-opacity:1;fill-opacity:1"
     d="M 66.400862,114.31034 C 65.35544,116.06598 64.881287,117.70736 66.064655,119.01724 C 63.87931,119.08035 61.693966,119.37005 59.508621,116.8319 C 60.69634,114.60426 63.445212,114.32807 66.400862,114.31034 z "
     id="path1944"
     sodipodi:nodetypes="cccc" />
  <path
     style="fill:#e20909;fill-rule:evenodd;stroke:black;stroke-width:1px;stroke-linecap:butt;stroke-linejoin:miter;stroke-opacity:1;fill-opacity:1"
     d="M 76.655173,145.24138 C 78.410772,147.20891 80.618433,148.87507 83.715517,149.94828 C 81.660426,151.34766 79.647598,152.87383 77.159483,152.97414 C 75.181728,153.74846 72.858104,153.13931 70.435345,152.13362 C 73.661053,150.41242 75.18464,147.84016 76.655173,145.24138 z "
     id="path1946"
     sodipodi:nodetypes="ccccc" />
  <path
     style="fill:#fcef3c;fill-rule:evenodd;stroke:black;stroke-width:1px;stroke-linecap:butt;stroke-linejoin:miter;stroke-opacity:1;fill-opacity:1"
     d="M 276.72258,222.66992 C 271.94419,216.87507 265.6824,212.93447 259.13025,209.35681 C 245.54196,220.37143 229.3586,226.12746 213.12024,226.9203 C 215.33959,224.06799 219.06913,221.54914 219.55596,216.9643 C 203.27922,223.76504 184.9301,228.12411 164.17584,227.76082 C 164.7624,223.32311 167.06576,218.8854 169.40599,214.4477 C 157.78947,217.59484 145.81118,220.58469 124.09724,219.34165 C 113.62047,227.53914 103.08749,235.70251 80.354152,236.45851 C 78.342333,235.95877 79.309933,233.96932 79.878683,232.17929 C 82.749915,230.6697 84.63572,227.18925 86.64566,223.95707 C 84.6826,221.28713 82.621176,218.71555 78.898905,217.80482 C 77.491774,213.26466 74.657428,208.7245 71.012888,204.18434 C 68.579512,202.6755 66.818549,203.44088 64.385173,203.68003 C 64.253274,208.90057 63.974362,214.12111 65.139164,219.34165 C 61.948831,220.91011 59.325832,221.99106 58.343346,225.32579 C 60.582104,228.48065 62.905045,231.57237 66.901776,233.40876 C 67.369718,235.60828 68.239198,237.96842 66.565569,239.31132 C 62.920312,241.19347 59.275054,241.48975 55.629797,239.78679 C 55.384714,234.6711 58.982965,228.19895 51.826051,225.52273 C 43.075089,224.31118 34.959908,225.00697 27.101696,226.47367 C 25.376859,226.51238 24.150656,227.54837 22.855614,228.44667 C 21.773787,229.69088 21.612964,230.93508 21.871544,232.17929 C 25.8672,233.01697 29.84726,233.88584 32.528794,237.35176 C 33.982587,241.05393 32.881685,242.98272 32.581529,246.24639 L 36.677024,248.10605 L 42.316683,247.86975 C 47.480655,250.72256 45.048882,253.57537 42.792152,256.42818 C 38.034676,255.31875 34.846591,254.20933 31.85638,253.0999 C 32.515131,257.50396 31.52496,259.92932 29.954506,261.65833 C 24.565865,263.54439 19.177223,263.90863 13.788582,263.5602 C 14.881958,269.29892 21.234224,272.84644 27.577164,276.39785 C 31.583207,277.88997 34.393344,277.58822 36.611063,276.39785 C 41.888536,276.13764 45.880414,276.7957 48.022304,278.77519 C 48.465888,275.76389 48.286269,272.75259 50.399645,269.74129 C 52.98988,268.31016 54.880032,268.97929 56.580734,270.21676 C 56.846092,275.191 53.046966,277.84268 50.399645,281.15253 C 50.539149,284.81203 51.009811,288.22315 54.678861,289.23549 C 53.18211,294.8589 52.543201,300.19636 53.727924,304.92595 C 62.698962,303.44397 69.232402,298.44101 74.173063,291.13737 C 77.856654,288.44673 81.986454,286.00399 81.780557,281.15253 C 78.218341,279.52372 74.377484,277.94557 75.599468,275.44691 C 81.443716,269.33473 87.711487,267.41085 94.450099,268.90077 C 96.107635,274.86614 91.632702,276.74319 89.695416,280.31201 C 93.051407,279.89737 95.900245,279.10235 97.471012,277.34879 C 102.61568,271.3422 108.10581,265.91139 114.58787,262.1338 C 116.5,262.70809 117.26593,264.04651 116.48975,266.41301 L 107.31659,275.05302 C 112.87472,276.75061 117.00205,273.31141 121.69106,270.66339 C 128.03129,260.59958 133.44585,254.61717 137.10299,255.75577 C 140.09736,262.23857 147.8327,266.16854 156.59719,269.54435 L 151.19894,257.85458 C 155.49321,248.54267 169.52317,247.34382 178.7761,242.16413 C 182.93551,251.43979 191.13206,258.88038 200.17218,265.93754 C 216.37283,274.76398 243.92198,284.85136 245.81714,292.0883 C 219.09756,292.62958 194.76194,282.04575 169.26673,276.87332 C 148.52194,274.46769 141.64417,281.19962 136.45942,284.95628 C 127.3227,297.33559 127.82934,308.10768 123.62177,319.66547 C 119.65953,322.07641 115.6973,321.77649 111.73506,321.09187 C 101.67011,315.06307 102.07122,307.66229 103.06622,299.8639 C 96.451741,301.9916 92.230383,310.11573 92.605909,321.25997 C 93.206008,328.76826 97.716196,333.26879 104.12757,336.30686 C 113.42692,340.5156 122.28576,341.75096 129.80286,333.92952 C 135.48528,338.36115 139.62053,343.89791 142.16504,350.57091 C 140.60355,370.27384 118.52308,379.97562 112.686,382.42729 C 110.70606,379.09901 112.16028,375.77074 112.686,372.44246 C 112.56229,368.46283 111.27063,365.06718 109.35772,361.98215 L 100.32382,361.50668 C 95.849587,353.59423 88.304239,357.35201 81.780557,357.22747 C 84.051038,360.34563 87.434629,362.51879 88.100907,367.24115 C 87.293083,371.91738 84.397516,373.11403 82.395286,375.79958 C 88.986724,382.19001 92.379245,385.70141 94.507783,388.07523 C 95.628331,392.33515 93.352749,391.83707 91.904654,392.24403 C 88.980831,394.42479 84.298623,387.81363 80.493413,385.58747 C 77.304396,385.346 74.115379,386.71978 70.926362,389.16542 C 59.173032,389.93218 56.866069,397.52132 52.776987,403.82337 C 58.303948,403.99593 63.870423,402.99513 68.131236,404.85589 C 72.173576,408.54328 76.084242,412.19116 75.73873,414.5622 C 79.7939,414.98101 82.846186,413.14334 85.108835,409.52899 C 90.189794,409.02048 91.585868,410.18692 91.765392,411.90633 C 85.420222,415.05596 80.536991,418.29695 81.305088,421.89116 L 85.584304,428.07225 C 83.939933,432.66845 84.054414,437.26464 84.633367,441.86084 C 86.21332,446.09558 87.285622,445.76146 88.437114,446.14005 C 93.584634,438.55197 95.306084,437.24502 97.946481,434.25334 C 106.84829,432.06191 108.28553,425.564 105.55397,416.66101 C 107.86148,411.56052 111.9613,412.28499 116.01428,412.85727 C 116.40129,417.78006 115.717,422.70284 113.86272,427.62563 C 116.08536,430.50894 117.2583,430.63718 120.37507,431.28517 C 119.59592,436.86497 118.78041,441.92164 121.07633,447.06215 C 130.88759,445.73135 130.58127,437.6555 134.38944,432.32263 C 137.30648,429.23155 137.57341,424.22494 137.35267,420.6856 L 131.22927,410.95539 C 134.77357,403.38765 142.32215,401.98034 151.6744,403.3479 C 149.42034,407.31014 151.0241,411.27237 151.19894,415.23461 C 156.34818,419.75988 161.23722,425.58617 165.93846,432.35147 C 167.02805,429.08756 168.8751,426.39174 168.3158,421.89116 C 164.1013,416.84107 160.12557,411.87057 161.18377,408.57805 C 161.50468,400.97841 165.54106,400.80972 168.3158,398.11775 C 166.96148,403.03092 167.4523,407.9441 168.3158,412.85727 C 168.53118,416.82312 170.72253,419.69121 174.97235,421.4157 C 183.84559,419.04107 188.5249,421.90886 193.99109,423.79304 C 193.53105,419.80976 190.39229,416.42176 185.90813,413.33273 C 178.37594,410.68372 180.12445,406.29459 179.25157,402.39696 C 178.6552,396.8847 180.0725,396.07103 180.67797,393.36306 C 184.22989,396.82941 184.35092,403.04046 185.90813,408.10258 C 195.02586,413.09959 199.68091,413.63391 204.92686,414.75914 C 206.49456,413.48549 206.52298,411.69875 205.40233,409.52899 C 201.78186,406.85195 197.74405,405.21823 194.94202,400.49509 C 191.40714,395.16666 193.25977,392.77686 194.46656,390.03479 C 202.0639,387.3472 210.09215,385.06744 210.77174,380.21805 C 215.54607,374.34306 217.33147,367.04984 217.90376,359.29744 C 215.31484,351.20001 211.46823,345.5036 203.97592,346.76716 C 205.40458,351.83882 207.88639,356.91049 206.82873,361.98215 C 208.15687,369.33891 204.01616,370.67994 201.12311,373.39339 C 201.52181,370.36166 201.55197,367.42207 200.17218,364.83496 C 193.42778,354.37657 185.39762,344.2039 186.38359,332.02765 C 189.05493,325.37029 194.40619,324.96609 199.69671,324.42015 L 229.62237,323.57963 C 239.00907,318.04771 247.21504,317.2387 255.77313,315.0212 C 246.36889,332.07357 234.71638,348.84491 232.02856,366.73684 C 232.55662,376.56347 234.01528,385.27338 236.78324,392.41213 C 241.79315,400.82373 239.57026,404.41347 239.63605,409.52899 C 235.21614,411.62138 228.10631,408.87192 221.56825,407.15165 C 220.0315,413.72312 226.69545,416.91783 232.50402,420.46476 C 242.14497,420.26919 244.56067,418.62857 247.71901,417.13648 C 253.58682,411.98742 254.76173,404.49192 255.32651,396.69134 C 270.06603,398.77999 284.13313,398.00732 298.87265,396.96987 C 298.32449,411.07543 285.74842,425.18099 277.47658,439.28655 C 274.55659,440.00477 272.21855,439.94705 271.9679,437.10615 L 273.3943,433.77787 C 274.01386,431.2161 273.1072,429.26482 271.49243,427.59679 C 261.74845,426.81629 252.16711,425.46654 241.56677,427.68331 C 239.49021,429.66841 237.63267,431.65351 237.76302,433.63862 C 243.67801,436.53785 247.8153,439.43707 251.04729,442.3363 C 251.6891,445.01884 252.37879,447.62956 253.9001,448.99286 L 263.88494,450.41927 C 264.98288,453.11359 265.52502,455.80791 264.83587,458.50223 C 260.56738,458.47004 256.78625,456.9758 252.94916,455.64942 C 250.74659,458.2609 247.66101,460.73654 251.04729,464.20785 C 246.60263,467.1804 245.30122,469.76004 244.39073,472.29081 C 243.06412,478.15844 243.49387,482.97225 244.39073,487.5058 C 244.81523,490.83129 246.96848,491.56365 249.14542,492.26048 C 254.46512,486.10355 259.18717,480.84311 260.08119,481.32471 C 263.77556,477.14146 266.24028,478.49167 269.11509,477.99643 C 270.62607,473.34536 270.82622,466.59698 274.34524,465.15878 C 276.21131,465.38887 278.43073,464.91228 278.14899,469.438 C 274.2882,472.60779 273.78471,475.77758 272.44337,478.94737 C 277.63441,482.95809 281.26684,486.79563 282.4282,490.35861 C 288.97918,494.95505 294.81425,497.40376 300.02053,497.9661 C 298.48919,492.11984 297.9925,486.61846 295.26585,480.37377 C 299.00703,478.3254 298.19924,475.70841 298.59413,473.24175 C 297.89061,471.00302 297.13524,468.74948 293.36397,465.63425 C 291.19395,466.34124 290.95277,463.67277 290.51116,461.35504 C 295.14752,457.99376 297.56887,459.9485 300.02053,461.83051 C 301.2579,463.98635 301.549,465.82677 301.44694,467.53613 C 299.90076,469.75498 300.8281,471.97383 301.9224,474.19268 C 305.2086,474.79439 308.92771,474.09735 310.9563,478.4719 C 310.0312,484.76204 310.73465,488.93506 314.28458,489.40767 C 317.27053,487.94324 319.27243,485.00274 320.46567,480.84924 C 322.49125,472.75468 323.03094,464.16483 322.36754,455.17395 C 319.55772,452.55214 316.48873,450.44867 311.90724,451.3702 C 309.59843,448.68567 310.79498,446.50191 314.76005,444.71365 C 320.97902,443.62587 323.38527,440.35939 326.64676,437.58162 C 329.65806,440.11833 334.01419,449.14928 337.02549,447.54256 C 342.72832,447.77828 343.89079,452.75482 345.10845,453.24818 L 344.71456,441.86084 C 339.12084,437.72261 334.65691,432.80766 336.15613,423.79304 L 346.61643,434.72881 C 353.8325,435.30458 353.91822,440.81675 355.65033,445.18911 C 358.94984,444.01346 360.26353,440.45483 361.35595,436.63068 C 356.11746,429.34255 351.14574,421.97819 348.99377,413.8082 C 347.15052,406.30299 350.97739,406.98797 352.79752,404.7743 C 354.14119,413.71729 357.90753,419.75308 363.73329,423.31757 C 370.1989,425.21755 376.16927,425.87941 380.85015,423.31757 C 388.27779,415.69806 395.20774,407.7986 395.58967,396.21587 C 384.52172,403.93691 371.64967,423.63065 365.1597,400.97056 C 364.15047,395.02187 365.93278,389.87076 368.01251,384.80463 C 368.62798,377.60551 367.72994,370.10369 366.11063,362.45762 C 370.31964,362.50976 373.7189,364.99113 377.0464,367.68777 C 378.5446,371.09313 379.39016,375.15113 380.4851,378.95975 C 382.1871,373.86462 384.09174,368.85634 382.75202,362.45762 C 377.51681,351.90145 369.50685,346.70978 357.5522,349.14451 C 342.31368,352.487 329.92898,357.95389 314.48152,362.42878 C 307.18934,357.27871 309.11236,347.68914 312.38271,337.2578 C 327.32975,335.81805 336.88076,328.66486 344.23909,319.19 C 347.54352,308.53544 348.68262,296.90228 350.19439,283.55872 C 346.70966,271.6624 344.3546,259.76607 336.63159,247.86975 C 329.21711,231.76263 330.01663,221.70793 330.92597,211.73415 C 336.35062,188.58181 347.3777,172.23242 358.97861,156.57982 C 363.47003,146.82744 368.23068,137.32358 367.06157,122.3461 C 361.15685,109.34254 346.89395,88.729432 352.96562,85.706197 C 354.09711,80.374918 357.6081,82.171728 360.88048,82.406761 C 367.11065,82.48672 370.53743,87.052096 374.66906,90.489723 C 375.56596,85.078567 369.68004,77.793817 365.43822,70.241529 C 361.94365,65.095939 356.57442,62.628431 349.94471,61.961621 C 339.67459,63.72878 337.69482,71.713692 334.25425,78.603014 C 329.44755,75.688664 323.64588,74.195714 315.71099,75.750204 C 311.54986,75.527505 309.11084,71.286539 306.20162,68.14271 C 305.85231,75.359369 307.19376,82.294233 309.5299,89.063317 C 310.68151,93.636077 312.02971,98.099617 317.13739,100.47456 L 322.84301,102.37643 C 320.7899,105.86803 316.50976,107.87495 318.08833,113.78767 C 321.77914,118.80104 324.65074,124.04846 325.22035,129.9536 C 324.93652,134.89992 322.98337,138.17692 320.94114,141.36484 C 325.689,141.5148 330.31654,141.51436 333.30332,139.46296 C 337.04267,137.98504 338.38259,134.58758 339.95987,131.38 C 339.49011,123.61402 337.94654,115.84803 339.95987,108.08205 C 344.16445,107.24307 346.51876,109.17948 348.04283,112.36127 C 354.76132,126.01118 351.1695,134.80918 350.89564,145.16858 C 342.32719,166.40617 329.68097,187.64375 319.03927,208.88134 C 316.02244,217.86333 318.22912,225.97474 320.46567,234.08117 C 328.81144,249.96708 330.5506,262.07779 332.82785,274.49598 C 337.34595,286.09882 334.11258,297.05571 333.77878,308.25423 C 333.84194,312.28422 332.09718,315.02284 329.0241,316.81266 C 325.11912,319.79464 320.48511,321.80458 315.23552,322.99375 C 314.28709,317.12964 314.26898,311.26553 309.05443,305.40142 C 293.57258,286.07658 273.05456,266.40037 275.77164,248.34522 C 275.74088,239.67087 274.31898,230.53281 276.72258,222.66992 z "
     id="path1948"
     sodipodi:nodetypes="cccccccccccccccccccccccccccccccccccccccccccccccccccccccccccccccccccccccccccccccccccccccccccccccccccccccccccccccccccccccccccccccccccccccccccccccccccccccccccccccccccccccccccccccccccccccccccccccccccccccccccccccccccccccccc" />
  <path
     style="fill:#e20909;fill-rule:evenodd;stroke:black;stroke-width:1px;stroke-linecap:butt;stroke-linejoin:miter;stroke-opacity:1;fill-opacity:1"
     d="M 68.229709,206.97947 C 67.067157,210.2285 67.176251,213.47754 69.180645,216.72657 C 71.887413,218.11107 73.706698,216.83313 75.837202,216.48884 C 74.249276,212.8451 72.321315,209.37137 68.229709,206.97947 z "
     id="path1952"
     sodipodi:nodetypes="cccc" />
  <path
     style="fill:#e20909;fill-rule:evenodd;stroke:black;stroke-width:1px;stroke-linecap:butt;stroke-linejoin:miter;stroke-opacity:1;fill-opacity:1"
     d="M 27.33943,229.32648 C 30.984687,227.36352 34.629945,225.87251 38.275202,227.66234 C 38.354614,230.00014 38.305435,232.27365 35.897861,233.36796 C 33.449481,230.40308 30.40935,229.8052 27.33943,229.32648 z "
     id="path1954"
     sodipodi:nodetypes="cccc" />
  <path
     style="fill:#e20909;fill-rule:evenodd;stroke:black;stroke-width:1px;stroke-linecap:butt;stroke-linejoin:miter;stroke-opacity:1;fill-opacity:1"
     d="M 21.158342,265.93754 C 24.49816,268.85036 28.067072,271.38137 33.282785,271.1677 C 33.303608,269.18658 33.486406,267.20546 30.429975,265.22434 L 21.158342,265.93754 z "
     id="path1956"
     sodipodi:nodetypes="cccc" />
  <path
     style="fill:#e20909;fill-rule:evenodd;stroke:black;stroke-width:1px;stroke-linecap:butt;stroke-linejoin:miter;stroke-opacity:1;fill-opacity:1"
     d="M 58.958076,289.23549 C 59.05583,293.12774 57.401974,296.14418 56.343,299.45806 C 61.352152,297.2671 66.052871,294.56208 69.180645,289.23549 C 65.773122,290.21858 62.365599,290.76267 58.958076,289.23549 z "
     id="path1958"
     sodipodi:nodetypes="cccc" />
  <path
     style="fill:#e20909;fill-rule:evenodd;stroke:black;stroke-width:1px;stroke-linecap:butt;stroke-linejoin:miter;stroke-opacity:1;fill-opacity:1"
     d="M 88.19938,358.41614 C 87.487366,361.53814 90.127532,363.98971 92.478595,366.4991 L 96.75781,360.55575 C 94.834354,358.29362 92.02451,357.50881 88.19938,358.41614 z "
     id="path1960"
     sodipodi:nodetypes="cccc" />
  <path
     style="fill:#e20909;fill-rule:evenodd;stroke:black;stroke-width:1px;stroke-linecap:butt;stroke-linejoin:miter;stroke-opacity:1;fill-opacity:1"
     d="M 70.60705,392.8876 C 66.128912,393.16252 62.169263,394.99291 58.958076,399.06868 C 63.640196,399.00694 67.586823,399.92586 70.369316,402.39696 C 71.333599,399.44843 72.132881,396.45866 70.60705,392.8876 z "
     id="path1962"
     sodipodi:nodetypes="cccc" />
  <path
     style="fill:#e20909;fill-rule:evenodd;stroke:black;stroke-width:1px;stroke-linecap:butt;stroke-linejoin:miter;stroke-opacity:1;fill-opacity:1"
     d="M 87.961645,429.02319 C 86.189705,433.22316 87.037512,437.42313 87.723911,441.6231 C 90.237663,439.01453 92.855532,436.56213 94.142734,432.11373 C 92.082371,432.53331 90.022008,431.12752 87.961645,429.02319 z "
     id="path1964"
     sodipodi:nodetypes="cccc" />
  <path
     style="fill:#e20909;fill-rule:evenodd;stroke:black;stroke-width:1px;stroke-linecap:butt;stroke-linejoin:miter;stroke-opacity:1;fill-opacity:1"
     d="M 124.09724,430.68733 C 125.38746,431.53672 127.64425,431.41953 131.467,429.73639 C 130.79024,434.66779 127.73445,438.40967 124.57271,442.09857 C 123.89034,438.29482 121.32447,434.49108 124.09724,430.68733 z "
     id="path1966"
     sodipodi:nodetypes="cccc" />
  <path
     style="fill:#e20909;fill-rule:evenodd;stroke:black;stroke-width:1px;stroke-linecap:butt;stroke-linejoin:miter;stroke-opacity:1;fill-opacity:1"
     d="M 257.22838,428.78546 C 251.50937,427.80775 246.96383,429.17696 242.48886,430.68733 C 248.31126,432.66845 249.5254,434.64956 251.76049,436.63068 C 255.66271,434.43153 256.41369,431.60212 257.22838,428.78546 z "
     id="path1968"
     sodipodi:nodetypes="cccc" />
  <path
     style="fill:#e20909;fill-rule:evenodd;stroke:black;stroke-width:1px;stroke-linecap:butt;stroke-linejoin:miter;stroke-opacity:1;fill-opacity:1"
     d="M 250.09635,469.20027 C 248.1216,474.49254 247.47679,479.51883 248.66995,484.17752 C 252.02405,481.45649 254.73174,478.41225 255.56424,474.43042 C 255.25128,472.68704 252.9232,470.94365 250.09635,469.20027 z "
     id="path1970"
     sodipodi:nodetypes="cccc" />
  <path
     style="fill:#e20909;fill-rule:evenodd;stroke:black;stroke-width:1px;stroke-linecap:butt;stroke-linejoin:miter;stroke-opacity:1;fill-opacity:1"
     d="M 284.33008,484.89072 C 286.41196,482.02321 289.06355,480.86484 292.41304,481.80018 C 294.07721,485.84167 295.4799,489.796 295.26585,493.21142 C 290.83228,492.01448 287.5145,488.58595 284.33008,484.89072 z "
     id="path1972"
     sodipodi:nodetypes="cccc" />
  <path
     style="fill:#e20909;fill-rule:evenodd;stroke:black;stroke-width:1px;stroke-linecap:butt;stroke-linejoin:miter;stroke-opacity:1;fill-opacity:1"
     d="M 312.14497,473.95495 L 313.63557,471.83386 C 314.48324,471.83724 316.29716,469.91001 317.85059,469.438 C 318.1017,473.99028 317.59763,478.03911 315.94872,481.32471 C 314.6808,481.78159 313.41289,476.96485 312.14497,473.95495 z "
     id="path1974"
     sodipodi:nodetypes="ccccc" />
  <path
     style="fill:white;fill-rule:evenodd;stroke:black;stroke-width:1px;stroke-linecap:butt;stroke-linejoin:miter;stroke-opacity:1;fill-opacity:1"
     d="M 220.14185,75.512469 C 221.78591,72.264482 235.23893,73.131265 235.1191,73.610596 C 239.0826,74.909706 239.38231,77.67433 240.11152,80.267153 L 240.58699,83.357697 L 238.92285,81.455824 C 237.4963,82.802618 235.54506,82.837692 233.6927,83.119963 L 231.55309,83.357697 C 228.92831,81.450048 227.6359,78.781044 226.56067,75.987938 C 223.74559,75.998316 222.13221,75.708271 220.14185,75.512469 z "
     id="path1976"
     sodipodi:nodetypes="ccccccccc" />
</g>
</symbol>
</svg>
