<?xml version="1.0" standalone="no"?>
<!DOCTYPE svg PUBLIC "-//W3C//DTD SVG .10//EN" "http://www.w3.org/TR/2001/REC-SVG-20010904/DTD/svg10.dtd">
<svg height="600" width="600" viewBox="0 0 600 600" xmlns:xlink="http://www.w3.org/1999/xlink" xmlns="http://www.w3.org/2000/svg">>
<title>Heraldic Cross Pattee (Patty, Formy)</title>
<desc>Heraldic Cross Pattee (Patty, Formy)</desc>
<symbol id="formy">
<g transform="scale(.15) translate(-300,-300)">
<path d="M30,144.097
C96.9686,223.907,195.815,270,300,270
C404.185,270,503.031,223.907,570,144.097
V455.903
C503.031,376.093,404.185,330,300,330
C195.815,330,96.9686,376.093,30,455.903Z"/>
<path d="M455.903,30
C376.093,96.9686,330,195.815,330,300
C330,404.185,376.093,503.031,455.903,570
H144.097
C223.907,503.031,270,404.185,270,300
C270,195.815,223.907,96.9686,144.097,30Z"/>
</g>
</symbol>
<symbol id="pommee">
<g transform="scale(.015) translate(-3000,-3000)">
<path d="M2700,3300
L1300,3300
C1192.82,3485.64,994.744,3600,780.385,3600
C449.014,3600,180.385,3331.37,180.385,3000
C180.385,2668.63,449.014,2400,780.385,2400
C994.744,2400,1192.82,2514.36,1300,2700
L2700,2700
L2700,1300
C2514.36,1192.82,2400,994.744,2400,780.385
C2400,449.014,2668.63,180.385,3000,180.385
C3331.37,180.385,3600,449.014,3600,780.385
C3600,994.744,3485.64,1192.82,3300,1300
L3300,2700
L4700,2700
C4807.18,2514.36,5005.26,2400,5219.62,2400
C5550.99,2400,5819.62,2668.63,5819.62,3000
C5819.62,3331.37,5550.99,3600,5219.62,3600
C5005.26,3600,4807.18,3485.64,4700,3300
L3300,3300
L3300,4700
C3485.64,4807.18,3600,5005.26,3600,5219.62
C3600,5550.99,3331.37,5819.62,3000,5819.62
C2668.63,5819.62,2400,5550.99,2400,5219.62
C2400,5005.26,2514.36,4807.18,2700,4700Z"/>
</g>
</symbol>
<symbol id="bottony">
<g transform="scale(.17) translate(-250,-250)">
<path transform="translate(15,15)" 
 d="M436.75,202c-6.465,0-12.487,1.881-17.564,5.115
c2.121-4.337,3.314-9.211,3.314-14.365c0-18.088-14.662-32.75-32.75-32.75
c-18.087,0-32.75,14.662-32.75,32.75c0,6.225,1.737,12.044,4.753,17
 H259.75
 V107.747c4.956,3.016,10.775,4.753,17,4.753c18.088,0,32.75-14.663,32.75-32.75
c0-18.087-14.662-32.75-32.75-32.75c-5.153,0-10.027,1.194-14.365,3.315
c3.234-5.077,5.115-11.1,5.115-17.565
 C267.5,14.663,252.838,0,234.75,0
 C216.663,0,202,14.663,202,32.75c0,6.465,1.881,12.488,5.115,17.564
 C202.777,48.194,197.904,47,192.75,47
 C174.663,47,160,61.663,160,79.75c0,18.087,14.663,32.75,32.75,32.75
c6.225,0,12.044-1.737,17-4.753
 V209.75
 H107.747c3.016-4.956,4.753-10.775,4.753-17c0-18.088-14.663-32.75-32.75-32.75
 C61.663,160,47,174.662,47,192.75c0,5.154,1.194,10.027,3.315,14.365
 C45.238,203.881,39.215,202,32.75,202
 C14.663,202,0,216.662,0,234.75c0,18.087,14.663,32.75,32.75,32.75
c6.465,0,12.488-1.881,17.564-5.115
 C48.194,266.723,47,271.596,47,276.75c0,18.087,14.663,32.75,32.75,32.75
c18.087,0,32.75-14.663,32.75-32.75c0-6.225-1.737-12.044-4.753-17
 H209.75v102.003c-4.956-3.016-10.775-4.753-17-4.753
c-18.087,0-32.75,14.663-32.75,32.75c0,18.088,14.663,32.75,32.75,32.75
c5.154,0,10.027-1.193,14.365-3.314c-3.234,5.077-5.115,11.1-5.115,17.564
c0,18.088,14.663,32.75,32.75,32.75c18.088,0,32.75-14.662,32.75-32.75
c0-6.465-1.881-12.487-5.115-17.564c4.338,2.121,9.212,3.314,14.365,3.314
c18.088,0,32.75-14.662,32.75-32.75c0-18.087-14.662-32.75-32.75-32.75
c-6.225,0-12.044,1.737-17,4.753
 V259.75h102.003c-3.016,4.956-4.753,10.775-4.753,17
c0,18.087,14.663,32.75,32.75,32.75c18.088,0,32.75-14.663,32.75-32.75
c0-5.154-1.193-10.027-3.314-14.365c5.077,3.234,11.1,5.115,17.564,5.115
c18.088,0,32.75-14.663,32.75-32.75
 C469.5,216.662,454.838,202,436.75,202z"/>
</g>
</symbol>
<symbol id="mullet3">
<g transform="scale(0.4) translate(-150,-650)">
	<path d="M 236.6623 699.8964 L 150.0239 670 L 63.4573 700.1035 L 132.6676 640.0207 L 149.8804 550.0001 L 167.3085 639.9793 L 236.6623 699.8964 z "/>
</g>
</symbol>
<symbol id="mullet4">
<g transform="scale(0.4) translate(-180, -250)">
	<path d="M 280 250 L 204.6558 272.7798 L 180 350 L 157.2202 274.6558 L 80 250 L 155.3442 227.2202 L 180 150 L 202.7798 225.3442 L 280 250 z "/>
</g>
</symbol>
<symbol id="mullet">
<g transform="scale(3.96,-3.96)">
	<path d="M 0 10 L 2.24514 3.0902 L 9.5106 3.0902 L 3.63274 -1.18035 L 5.87785 -8.0902 L 0 -3.81968 L -5.87787 -8.0902 L -3.63274 -1.18035 L -9.5106 3.0902 L -2.24514 3.0902 z"/>
</g>
</symbol>
<symbol id="mullet5">
<g transform="scale(3.96,-3.96)">
	<path d="M 0 10 L 2.24514 3.0902 L 9.5106 3.0902 L 3.63274 -1.18035 L 5.87785 -8.0902 L 0 -3.81968 L -5.87787 -8.0902 L -3.63274 -1.18035 L -9.5106 3.0902 L -2.24514 3.0902 z"/>
</g>
</symbol>
<symbol id="mullet6">
<g transform="scale(3.3)">
	<path d="M 7.34763812293e-16 -12.0 L 7.34763812293e-16 -12.0 L 3.46410161514 -6.0 L 10.3923048454 -6.0 L 6.92820323028 -7.69185074553e-16 L 10.3923048454 6.0 L 3.46410161514 6.0 L 7.34763812293e-16 12.0 L -3.46410161514 6.0 L -10.3923048454 6.0 L -6.92820323028 3.92517246785e-15 L -10.3923048454 -6.0 L -3.46410161514 -6.0 z"/>
</g>
</symbol>
<symbol id="mullet7">
<g transform="scale(3.3)">
	<path d="M 7.34763812293e-16 -12.0 L 7.34763812293e-16 -12.0 L 1.85821576364 -3.85862479265 L 9.38197778962 -7.4818776223 L 4.17537292021 -0.953001622182 L 11.6991349462 2.67025120748 L 3.34838910577 2.67025120748 L 5.20660486941 10.8116264148 L 2.62234168484e-16 4.28275041471 L -5.20660486941 10.8116264148 L -3.34838910577 2.67025120748 L -11.6991349462 2.67025120748 L -4.17537292021 -0.953001622182 L -9.38197778962 -7.4818776223 L -1.85821576364 -3.85862479265 z" />
</g>
</symbol>
<symbol id="mullet8">
<g transform="scale(3.3)">
	<path d="M 7.34763812293e-16 -12.0 L 7.34763812293e-16 -12.0 L 2.48528137424 -6.0 L 8.48528137424 -8.48528137424 L 6.0 -2.48528137424 L 12.0 0.0 L 6.0 2.48528137424 L 8.48528137424 8.48528137424 L 2.48528137424 6.0 L 7.34763812293e-16 12.0 L -2.48528137424 6.0 L -8.48528137424 8.48528137424 L -6.0 2.48528137424 L -12.0 1.46952762459e-15 L -6.0 -2.48528137424 L -8.48528137424 -8.48528137424 L -2.48528137424 -6.0 z" />
</g>
</symbol>
<symbol id="mullet9">
<g transform="scale(3.3)">
	<path d="M 7.34763812293e-16 -12.0 L 7.34763812293e-16 -12.0 L 1.42538819073 -3.916221868 L 7.71345131624 -9.19253331743 L 3.60920959633 -2.083778132 L 11.8176930361 -2.083778132 L 4.10424171991 0.723688550569 L 10.3923048454 6.0 L 2.67885352917 3.19253331743 L 4.10424171991 11.2763114494 L 2.55180794041e-16 4.16755626401 L -4.10424171991 11.2763114494 L -2.67885352917 3.19253331743 L -10.3923048454 6.0 L -4.10424171991 0.723688550569 L -11.8176930361 -2.083778132 L -3.60920959633 -2.083778132 L -7.71345131624 -9.19253331743 L -1.42538819073 -3.916221868 z"/>
</g>
</symbol>
<symbol id="mullet10">
<g transform="scale(3.3)">
	<path d="M 7.34763812293e-16 -12.0 L 7.34763812293e-16 -12.0 L 1.9495181774 -6.0 L 7.05342302751 -9.7082039325 L 5.10390485011 -3.7082039325 L 11.4126781955 -3.7082039325 L 6.30877334543 0.0 L 11.4126781955 3.7082039325 L 5.10390485011 3.7082039325 L 7.05342302751 9.7082039325 L 1.9495181774 6.0 L 7.34763812293e-16 12.0 L -1.9495181774 6.0 L -7.05342302751 9.7082039325 L -5.10390485011 3.7082039325 L -11.4126781955 3.7082039325 L -6.30877334543 7.72576392364e-16 L -11.4126781955 -3.7082039325 L -5.10390485011 -3.7082039325 L -7.05342302751 -9.7082039325 L -1.9495181774 -6.0 z" />
</g>
</symbol>
<symbol id="mullet11">
<g transform="scale(3.3)">
	<path d="M 7.34763812293e-16 -12.0 L 7.34763812293e-16 -12.0 L 1.15820724841 -3.94449164591 L 6.48768980947 -10.095042394 L 3.10689912737 -2.69214341878 L 10.9155839443 -4.98498015602 L 4.06917248569 -0.585058677963 L 11.8778573026 1.70777805928 L 3.7395123312 1.70777805928 L 9.06899489225 7.85832880734 L 2.22258343368 3.45840732928 L 3.3807906821 11.5139156834 L -6.61110221733e-16 4.11101670818 L -3.3807906821 11.5139156834 L -2.22258343368 3.45840732928 L -9.06899489225 7.85832880734 L -3.7395123312 1.70777805928 L -11.8778573026 1.70777805928 L -4.06917248569 -0.585058677963 L -10.9155839443 -4.98498015602 L -3.10689912737 -2.69214341878 L -6.48768980947 -10.095042394 L -1.15820724841 -3.94449164591 z" />
</g>
</symbol>
<symbol id="mullet12">
<g transform="scale(3.3)">
	<path d="M 7.34763812293e-16 -12.0 L 7.34763812293e-16 -12.0 L 1.60769515459 -6.0 L 6.0 -10.3923048454 L 4.39230484541 -4.39230484541 L 10.3923048454 -6.0 L 6.0 -1.60769515459 L 12.0 0.0 L 6.0 1.60769515459 L 10.3923048454 6.0 L 4.39230484541 4.39230484541 L 6.0 10.3923048454 L 1.60769515459 6.0 L 7.34763812293e-16 12.0 L -1.60769515459 6.0 L -6.0 10.3923048454 L -4.39230484541 4.39230484541 L -10.3923048454 6.0 L -6.0 1.60769515459 L -12.0 1.46952762459e-15 L -6.0 -1.60769515459 L -10.3923048454 -6.0 L -4.39230484541 -4.39230484541 L -6.0 -10.3923048454 L -1.60769515459 -6.0 z" />
</g>
</symbol>
<symbol id="mullet13">
<g transform="scale(3.3)">
    <path d="M 0.000000 -12.000000 L 0.000000,-12.000000 0.976173,-3.960490 5.576678,-10.625472 2.704890,-3.053190 9.875806,-6.816777 3.813949,-1.446440 11.912506,-1.446440 4.049279,0.491671 11.220195,4.255259 3.356967,2.317147 7.957472,8.982129 1.895615,3.611792 2.871788,11.651302 0.000000,4.079019 -2.871788,11.651302 -1.895615,3.611792 -7.957472,8.982129 -3.356967,2.317147 -11.220195,4.255259 -4.049279,0.491671 -11.912506,-1.446440 -3.813949,-1.446440 -9.875806,-6.816777 -2.704890,-3.053190 -5.576678,-10.625472 -0.976173,-3.960490 z" />
</g>
</symbol>
<symbol id="mullet14">
<g transform="scale(3.3)">
    <path d="M 0.000000 -12.000000 L 0.000000,-12.000000 1.369461,-6.000000 5.206605,-10.811626 3.837144,-4.811626 9.381978,-7.481878 5.544834,-2.670251 11.699135,-2.670251 6.154301,0.000000 11.699135,2.670251 5.544834,2.670251 9.381978,7.481878 3.837144,4.811626 5.206605,10.811626 1.369461,6.000000 0.000000,12.000000 -1.369461,6.000000 -5.206605,10.811626 -3.837144,4.811626 -9.381978,7.481878 -5.544834,2.670251 -11.699135,2.670251 -6.154301,0.000000 -11.699135,-2.670251 -5.544834,-2.670251 -9.381978,-7.481878 -3.837144,-4.811626 -5.206605,-10.811626 -1.369461,-6.000000 z" />
</g>
</symbol>
<symbol id="mullet15">
<g transform="scale(3.3)">
    <path d="M 0.000000 -12.000000 L 0.000000,-12.000000 0.843942,-3.970433 4.880840,-10.962545 2.385899,-3.283909 8.917738,-8.029567 3.515314,-2.029567 11.412678,-3.708204 4.036898,-0.424295 11.934263,1.254342 3.860466,1.254342 10.392305,6.000000 3.016525,2.716091 7.053423,9.708204 1.650999,3.708204 2.494940,11.737771 0.000000,4.059135 -2.494940,11.737771 -1.650999,3.708204 -7.053423,9.708204 -3.016525,2.716091 -10.392305,6.000000 -3.860466,1.254342 -11.934263,1.254342 -4.036898,-0.424295 -11.412678,-3.708204 -3.515314,-2.029567 -8.917738,-8.029567 -2.385899,-3.283909 -4.880840,-10.962545 -0.843942,-3.970433 z" />
</g>
</symbol>
<symbol id="mullet16">
<g transform="scale(3.3)">
    <path d="M 0.000000 -12.000000 L 0.000000,-12.000000 1.193474,-6.000000 4.592201,-11.086554 3.398727,-5.086554 8.485281,-8.485281 5.086554,-3.398727 11.086554,-4.592201 6.000000,-1.193474 12.000000,0.000000 6.000000,1.193474 11.086554,4.592201 5.086554,3.398727 8.485281,8.485281 3.398727,5.086554 4.592201,11.086554 1.193474,6.000000 0.000000,12.000000 -1.193474,6.000000 -4.592201,11.086554 -3.398727,5.086554 -8.485281,8.485281 -5.086554,3.398727 -11.086554,4.592201 -6.000000,1.193474 -12.000000,0.000000 -6.000000,-1.193474 -11.086554,-4.592201 -5.086554,-3.398727 -8.485281,-8.485281 -3.398727,-5.086554 -4.592201,-11.086554 -1.193474,-6.000000 z" />
</g>
</symbol>
<symbol id="mullet17">
<g transform="scale(3.3)">
    <path d="M 0.000000 -12.000000 L 0.000000,-12.000000 0.743437,-3.977037 4.334900,-11.189667 2.129906,-3.439916 8.084348,-8.868107 3.228719,-2.438215 10.741959,-5.348860 3.891476,-1.107220 11.948810,-1.107220 4.028667,0.373311 11.541908,3.283956 3.621765,1.803425 9.576207,7.231616 2.725723,2.989976 6.317186,10.202606 1.461557,3.772714 2.204994,11.795677 0.000000,4.045926 -2.204994,11.795677 -1.461557,3.772714 -6.317186,10.202606 -2.725723,2.989976 -9.576207,7.231616 -3.621765,1.803425 -11.541908,3.283956 -4.028667,0.373311 -11.948810,-1.107220 -3.891476,-1.107220 -10.741959,-5.348860 -3.228719,-2.438215 -8.084348,-8.868107 -2.129906,-3.439916 -4.334900,-11.189667 -0.743437,-3.977037 z" />
</g>
</symbol>
<symbol id="mullet18">
<g transform="scale(3.3)">
    <path d="M 0.000000 -12.000000 L 0.000000,-12.000000 1.057962,-6.000000 4.104242,-11.276311 3.046280,-5.276311 7.713451,-9.192533 4.667171,-3.916222 10.392305,-6.000000 5.725133,-2.083778 11.817693,-2.083778 6.092560,-0.000000 11.817693,2.083778 5.725133,2.083778 10.392305,6.000000 4.667171,3.916222 7.713451,9.192533 3.046280,5.276311 4.104242,11.276311 1.057962,6.000000 0.000000,12.000000 -1.057962,6.000000 -4.104242,11.276311 -3.046280,5.276311 -7.713451,9.192533 -4.667171,3.916222 -10.392305,6.000000 -5.725133,2.083778 -11.817693,2.083778 -6.092560,0.000000 -11.817693,-2.083778 -5.725133,-2.083778 -10.392305,-6.000000 -4.667171,-3.916222 -7.713451,-9.192533 -3.046280,-5.276311 -4.104242,-11.276311 -1.057962,-6.000000 z" />
</g>
</symbol>
<symbol id="mullet19">
<g transform="scale(3.3)">
    <path d="M 0.000000 -12.000000 L 0.000000,-12.000000 0.664420,-3.981648 3.896394,-11.349807 1.921259,-3.550175 7.370553,-9.469686 2.969899,-2.733985 10.045998,-6.563378 3.696705,-1.621525 11.632803,-2.945826 4.022916,-0.333348 11.959014,0.990952 3.913182,0.990952 10.989280,4.820345 3.379393,2.207868 8.828687,8.127379 2.479395,3.185526 5.711369,10.553685 1.310716,3.817984 1.975135,11.836336 0.000000,4.036704 -1.975135,11.836336 -1.310716,3.817984 -5.711369,10.553685 -2.479395,3.185526 -8.828687,8.127379 -3.379393,2.207868 -10.989280,4.820345 -3.913182,0.990952 -11.959014,0.990952 -4.022916,-0.333348 -11.632803,-2.945826 -3.696705,-1.621525 -10.045998,-6.563378 -2.969899,-2.733985 -7.370553,-9.469686 -1.921259,-3.550175 -3.896394,-11.349807 -0.664420,-3.981648 z" />
</g>
</symbol>
<symbol id="mullet20">
<g transform="scale(3.3)">
    <path d="M 0.000000 -12.000000 L 0.000000,-12.000000 0.950307,-6.000000 3.708204,-11.412678 2.757897,-5.412678 7.053423,-9.708204 4.295526,-4.295526 9.708204,-7.053423 5.412678,-2.757897 11.412678,-3.708204 6.000000,-0.950307 12.000000,0.000000 6.000000,0.950307 11.412678,3.708204 5.412678,2.757897 9.708204,7.053423 4.295526,4.295526 7.053423,9.708204 2.757897,5.412678 3.708204,11.412678 0.950307,6.000000 0.000000,12.000000 -0.950307,6.000000 -3.708204,11.412678 -2.757897,5.412678 -7.053423,9.708204 -4.295526,4.295526 -9.708204,7.053423 -5.412678,2.757897 -11.412678,3.708204 -6.000000,0.950307 -12.000000,0.000000 -6.000000,-0.950307 -11.412678,-3.708204 -5.412678,-2.757897 -9.708204,-7.053423 -4.295526,-4.295526 -7.053423,-9.708204 -2.757897,-5.412678 -3.708204,-11.412678 -0.950307,-6.000000 z" />
</g>
</symbol>
<symbol id="mullet21">
<g transform="scale(3.3)">
    <path d="M 0.000000 -12.000000 L 0.000000,-12.000000 0.600642,-3.984996 3.537062,-11.466874 1.748555,-3.630912 6.759841,-9.914865 2.741102,-2.954205 9.381978,-7.481878 3.490089,-2.015004 11.170485,-4.384092 3.928967,-0.896761 11.966446,-0.896761 4.018739,0.301163 11.699135,2.670251 3.751429,1.472327 10.392305,6.000000 3.150787,2.512669 8.162073,8.796622 2.270184,3.329749 5.206605,10.811626 1.187866,3.850966 1.788507,11.865970 -0.000000,4.030008 -1.788507,11.865970 -1.187866,3.850966 -5.206605,10.811626 -2.270184,3.329749 -8.162073,8.796622 -3.150787,2.512669 -10.392305,6.000000 -3.751429,1.472327 -11.699135,2.670251 -4.018739,0.301163 -11.966446,-0.896761 -3.928967,-0.896761 -11.170485,-4.384092 -3.490089,-2.015004 -9.381978,-7.481878 -2.741102,-2.954205 -6.759841,-9.914865 -1.748555,-3.630912 -3.537062,-11.466874 -0.600642,-3.984996 z" />
</g>
</symbol>
<symbol id="mullet22">
<g transform="scale(3.3)">
    <path d="M 0.000000 -12.000000 L 0.000000,-12.000000 0.862670,-6.000000 3.380791,-11.513916 2.518121,-5.513916 6.487690,-10.095042 3.969569,-4.581127 9.068995,-7.858329 5.099426,-3.277202 10.915584,-4.984980 5.816158,-1.707778 11.877857,-1.707778 6.061699,0.000000 11.877857,1.707778 5.816158,1.707778 10.915584,4.984980 5.099426,3.277202 9.068995,7.858329 3.969569,4.581127 6.487690,10.095042 2.518121,5.513916 3.380791,11.513916 0.862670,6.000000 0.000000,12.000000 -0.862670,6.000000 -3.380791,11.513916 -2.518121,5.513916 -6.487690,10.095042 -3.969569,4.581127 -9.068995,7.858329 -5.099426,3.277202 -10.915584,4.984980 -5.816158,1.707778 -11.877857,1.707778 -6.061699,0.000000 -11.877857,-1.707778 -5.816158,-1.707778 -10.915584,-4.984980 -5.099426,-3.277202 -9.068995,-7.858329 -3.969569,-4.581127 -6.487690,-10.095042 -2.518121,-5.513916 -3.380791,-11.513916 -0.862670,-6.000000 z" />
</g>
</symbol>
<symbol id="mullet23">
<g transform="scale(3.3)">
    <path d="M 0.000000 -12.000000 L 0.000000,-12.000000 0.548070,-3.987504 3.237561,-11.555007 1.603561,-3.691769 6.235007,-10.253033 2.540124,-3.122232 8.770032,-8.190638 3.288298,-2.321134 10.654623,-5.520780 3.792593,-1.347888 11.749009,-2.441472 4.015609,-0.274675 11.972025,0.818909 3.940806,0.818909 11.307131,4.018555 3.573731,1.851758 9.803639,6.920164 2.941609,2.747271 7.573055,9.308535 2.091322,3.439032 4.780813,11.006536 1.085930,3.875735 1.634000,11.888231 0.000000,4.024993 -1.634000,11.888231 -1.085930,3.875735 -4.780813,11.006536 -2.091322,3.439032 -7.573055,9.308535 -2.941609,2.747271 -9.803639,6.920164 -3.573731,1.851758 -11.307131,4.018555 -3.940806,0.818909 -11.972025,0.818909 -4.015609,-0.274675 -11.749009,-2.441472 -3.792593,-1.347888 -10.654623,-5.520780 -3.288298,-2.321134 -8.770032,-8.190638 -2.540124,-3.122232 -6.235007,-10.253033 -1.603561,-3.691769 -3.237561,-11.555007 -0.548070,-3.987504 z" />
</g>
</symbol>
<symbol id="mullet24">
<g transform="scale(3.3)">
    <path d="M 0.000000 -12.000000 L 0.000000,-12.000000 0.789915,-6.000000 3.105829,-11.591110 2.315914,-5.591110 6.000000,-10.392305 3.684086,-4.801195 8.485281,-8.485281 4.801195,-3.684086 10.392305,-6.000000 5.591110,-2.315914 11.591110,-3.105829 6.000000,-0.789915 12.000000,0.000000 6.000000,0.789915 11.591110,3.105829 5.591110,2.315914 10.392305,6.000000 4.801195,3.684086 8.485281,8.485281 3.684086,4.801195 6.000000,10.392305 2.315914,5.591110 3.105829,11.591110 0.789915,6.000000 0.000000,12.000000 -0.789915,6.000000 -3.105829,11.591110 -2.315914,5.591110 -6.000000,10.392305 -3.684086,4.801195 -8.485281,8.485281 -4.801195,3.684086 -10.392305,6.000000 -5.591110,2.315914 -11.591110,3.105829 -6.000000,0.789915 -12.000000,0.000000 -6.000000,-0.789915 -11.591110,-3.105829 -5.591110,-2.315914 -10.392305,-6.000000 -4.801195,-3.684086 -8.485281,-8.485281 -3.684086,-4.801195 -6.000000,-10.392305 -2.315914,-5.591110 -3.105829,-11.591110 -0.789915,-6.000000 z" />
</g>
</symbol>
<symbol id="mullet25">
<g transform="scale(3.3)">
    <path d="M 0.000000 -12.000000 L 0.000000,-12.000000 0.503982,-3.989431 2.984279,-11.622998 1.480280,-3.738760 5.781044,-10.515680 2.363566,-3.253169 8.214565,-8.747624 3.098341,-2.563170 10.131935,-6.429922 3.638435,-1.712118 11.412678,-3.708204 3.949913,-0.753486 11.976321,-0.753486 4.013204,0.252489 11.787447,2.248576 3.824330,1.242600 10.857925,5.109351 3.395160,2.154634 9.246159,7.649088 2.752659,2.931284 7.053423,9.708204 1.937198,3.523751 4.417495,11.157318 1.000017,3.894807 1.503999,11.905376 -0.000000,4.021139 -1.503999,11.905376 -1.000017,3.894807 -4.417495,11.157318 -1.937198,3.523751 -7.053423,9.708204 -2.752659,2.931284 -9.246159,7.649088 -3.395160,2.154634 -10.857925,5.109351 -3.824330,1.242600 -11.787447,2.248576 -4.013204,0.252489 -11.976321,-0.753486 -3.949913,-0.753486 -11.412678,-3.708204 -3.638435,-1.712118 -10.131935,-6.429922 -3.098341,-2.563170 -8.214565,-8.747624 -2.363566,-3.253169 -5.781044,-10.515680 -1.480280,-3.738760 -2.984279,-11.622998 -0.503982,-3.989431 z" />
</g>
</symbol>
<symbol id="mullet26">
<g transform="scale(3.3)">
    <path d="M 0.000000 -12.000000 L 0.000000,-12.000000 0.728532,-6.000000 2.871788,-11.651302 2.143256,-5.651302 5.576678,-10.625472 3.433422,-4.974170 7.957472,-8.982129 4.524050,-4.007958 9.875806,-6.816777 5.351756,-2.808818 11.220195,-4.255259 5.868438,-1.446440 11.912506,-1.446440 6.044068,-0.000000 11.912506,1.446440 5.868438,1.446440 11.220195,4.255259 5.351756,2.808818 9.875806,6.816777 4.524050,4.007958 7.957472,8.982129 3.433422,4.974170 5.576678,10.625472 2.143256,5.651302 2.871788,11.651302 0.728532,6.000000 0.000000,12.000000 -0.728532,6.000000 -2.871788,11.651302 -2.143256,5.651302 -5.576678,10.625472 -3.433422,4.974170 -7.957472,8.982129 -4.524050,4.007958 -9.875806,6.816777 -5.351756,2.808818 -11.220195,4.255259 -5.868438,1.446440 -11.912506,1.446440 -6.044068,0.000000 -11.912506,-1.446440 -5.868438,-1.446440 -11.220195,-4.255259 -5.351756,-2.808818 -9.875806,-6.816777 -4.524050,-4.007958 -7.957472,-8.982129 -3.433422,-4.974170 -5.576678,-10.625472 -2.143256,-5.651302 -2.871788,-11.651302 -0.728532,-6.000000 z" />
</g>
</symbol>
<symbol id="mullet27">
<g transform="scale(3.3)">
    <path d="M 0.000000 -12.000000 L 0.000000,-12.000000 0.466474,-3.990944 2.767390,-11.676538 1.374275,-3.775791 5.385590,-10.723592 2.207989,-3.357084 7.713451,-9.192533 2.922669,-2.757396 9.625478,-7.165903 3.479788,-2.009056 11.018593,-4.752957 3.849310,-1.152408 11.817693,-2.083778 4.011315,-0.233632 11.979698,0.697738 3.957069,0.697738 11.495874,3.441639 3.689496,1.591493 10.392305,6.000000 3.223021,2.399451 8.728484,8.234900 2.582793,3.078053 6.594108,10.025854 1.803326,3.590717 4.104242,11.276311 0.926641,3.909804 1.393115,11.918860 0.000000,4.018113 -1.393115,11.918860 -0.926641,3.909804 -4.104242,11.276311 -1.803326,3.590717 -6.594108,10.025854 -2.582793,3.078053 -8.728484,8.234900 -3.223021,2.399451 -10.392305,6.000000 -3.689496,1.591493 -11.495874,3.441639 -3.957069,0.697738 -11.979698,0.697738 -4.011315,-0.233632 -11.817693,-2.083778 -3.849310,-1.152408 -11.018593,-4.752957 -3.479788,-2.009056 -9.625478,-7.165903 -2.922669,-2.757396 -7.713451,-9.192533 -2.207989,-3.357084 -5.385590,-10.723592 -1.374275,-3.775791 -2.767390,-11.676538 -0.466474,-3.990944 z" />
</g>
</symbol>
<symbol id="mullet28">
<g transform="scale(3.3)">
    <path d="M 0.000000 -12.000000 L 0.000000,-12.000000 0.676038,-6.000000 2.670251,-11.699135 1.994214,-5.699135 5.206605,-10.811626 3.212391,-5.112491 7.481878,-9.381978 4.269486,-4.269486 9.381978,-7.481878 5.112491,-3.212391 10.811626,-5.206605 5.699135,-1.994214 11.699135,-2.670251 6.000000,-0.676038 12.000000,0.000000 6.000000,0.676038 11.699135,2.670251 5.699135,1.994214 10.811626,5.206605 5.112491,3.212391 9.381978,7.481878 4.269486,4.269486 7.481878,9.381978 3.212391,5.112491 5.206605,10.811626 1.994214,5.699135 2.670251,11.699135 0.676038,6.000000 0.000000,12.000000 -0.676038,6.000000 -2.670251,11.699135 -1.994214,5.699135 -5.206605,10.811626 -3.212391,5.112491 -7.481878,9.381978 -4.269486,4.269486 -9.381978,7.481878 -5.112491,3.212391 -10.811626,5.206605 -5.699135,1.994214 -11.699135,2.670251 -6.000000,0.676038 -12.000000,0.000000 -6.000000,-0.676038 -11.699135,-2.670251 -5.699135,-1.994214 -10.811626,-5.206605 -5.112491,-3.212391 -9.381978,-7.481878 -4.269486,-4.269486 -7.481878,-9.381978 -3.212391,-5.112491 -5.206605,-10.811626 -1.994214,-5.699135 -2.670251,-11.699135 -0.676038,-6.000000 z" />
</g>
</symbol>
<symbol id="mullet29">
<g transform="scale(3.3)">
    <path d="M 0.000000 -12.000000 L 0.000000,-12.000000 0.434173,-3.992153 2.579645,-11.719447 1.282217,-3.805485 5.038669,-10.890905 2.070306,-3.440876 7.262091,-9.553117 2.761590,-2.915375 9.145945,-7.768635 3.323745,-2.253555 10.602145,-5.620901 3.730486,-1.486361 11.562600,-3.210340 3.962793,-0.649667 11.982401,-0.649667 4.009804,0.217405 11.841918,1.941384 3.869321,1.074312 11.147721,4.441658 3.547914,1.880985 9.932268,6.734245 3.060609,2.599705 8.252394,8.711946 2.430194,3.196866 6.186646,10.282286 1.686146,3.644545 3.831618,11.371838 0.863255,3.921809 1.297428,11.929655 0.000000,4.015693 -1.297428,11.929655 -0.863255,3.921809 -3.831618,11.371838 -1.686146,3.644545 -6.186646,10.282286 -2.430194,3.196866 -8.252394,8.711946 -3.060609,2.599705 -9.932268,6.734245 -3.547914,1.880985 -11.147721,4.441658 -3.869321,1.074312 -11.841918,1.941384 -4.009804,0.217405 -11.982401,-0.649667 -3.962793,-0.649667 -11.562600,-3.210340 -3.730486,-1.486361 -10.602145,-5.620901 -3.323745,-2.253555 -9.145945,-7.768635 -2.761590,-2.915375 -7.262091,-9.553117 -2.070306,-3.440876 -5.038669,-10.890905 -1.282217,-3.805485 -2.579645,-11.719447 -0.434173,-3.992153 z" />
</g>
</symbol>
<symbol id="mullet30">
<g transform="scale(3.3)">
    <path d="M 0.000000 -12.000000 L 0.000000,-12.000000 0.630625,-6.000000 2.494940,-11.737771 1.864315,-5.737771 4.880840,-10.962545 3.016525,-5.224774 7.053423,-9.708204 4.036898,-4.483430 8.917738,-8.029567 4.880840,-3.546138 10.392305,-6.000000 5.511465,-2.453862 11.412678,-3.708204 5.901213,-1.254342 11.934263,-1.254342 6.033050,-0.000000 11.934263,1.254342 5.901213,1.254342 11.412678,3.708204 5.511465,2.453862 10.392305,6.000000 4.880840,3.546138 8.917738,8.029567 4.036898,4.483430 7.053423,9.708204 3.016525,5.224774 4.880840,10.962545 1.864315,5.737771 2.494940,11.737771 0.630625,6.000000 0.000000,12.000000 -0.630625,6.000000 -2.494940,11.737771 -1.864315,5.737771 -4.880840,10.962545 -3.016525,5.224774 -7.053423,9.708204 -4.036898,4.483430 -8.917738,8.029567 -4.880840,3.546138 -10.392305,6.000000 -5.511465,2.453862 -11.412678,3.708204 -5.901213,1.254342 -11.934263,1.254342 -6.033050,0.000000 -11.934263,-1.254342 -5.901213,-1.254342 -11.412678,-3.708204 -5.511465,-2.453862 -10.392305,-6.000000 -4.880840,-3.546138 -8.917738,-8.029567 -4.036898,-4.483430 -7.053423,-9.708204 -3.016525,-5.224774 -4.880840,-10.962545 -1.864315,-5.737771 -2.494940,-11.737771 -0.630625,-6.000000 z" />
</g>
</symbol>
<symbol id="mullet31">
<g transform="scale(3.3)">
    <path d="M 0.000000 -12.000000 L 0.000000,-12.000000 0.406062,-3.993136 2.415582,-11.754359 1.201562,-3.829656 4.732270,-11.027494 1.947870,-3.509390 6.855219,-9.849161 2.614432,-3.045449 8.697513,-8.267603 3.173959,-2.456827 10.183731,-6.347568 3.603544,-1.767623 11.253026,-4.167663 3.885599,-1.006051 11.861620,-1.817133 4.008577,-0.203292 11.984598,0.607790 3.967444,0.607790 11.616925,3.007830 3.763883,1.393989 10.773654,5.284730 3.406228,2.123118 9.489309,7.345272 2.909122,2.765326 7.816470,9.105097 2.292916,3.294322 5.823624,10.492159 1.582837,3.688447 3.592357,11.449671 0.807958,3.931567 1.214020,11.938432 0.000000,4.013729 -1.214020,11.938432 -0.807958,3.931567 -3.592357,11.449671 -1.582837,3.688447 -5.823624,10.492159 -2.292916,3.294322 -7.816470,9.105097 -2.909122,2.765326 -9.489309,7.345272 -3.406228,2.123118 -10.773654,5.284730 -3.763883,1.393989 -11.616925,3.007830 -3.967444,0.607790 -11.984598,0.607790 -4.008577,-0.203292 -11.861620,-1.817133 -3.885599,-1.006051 -11.253026,-4.167663 -3.603544,-1.767623 -10.183731,-6.347568 -3.173959,-2.456827 -8.697513,-8.267603 -2.614432,-3.045449 -6.855219,-9.849161 -1.947870,-3.509390 -4.732270,-11.027494 -1.201562,-3.829656 -2.415582,-11.754359 -0.406062,-3.993136 z" />
</g>
</symbol>
<symbol id="mullet32">
<g transform="scale(3.3)">
    <path d="M 0.000000 -12.000000 L 0.000000,-12.000000 0.590948,-6.000000 2.341084,-11.769423 1.750135,-5.769423 4.592201,-11.086554 2.842066,-5.317131 6.666843,-9.977635 3.824777,-4.660504 8.485281,-8.485281 4.660504,-3.824777 9.977635,-6.666843 5.317131,-2.842066 11.086554,-4.592201 5.769423,-1.750135 11.769423,-2.341084 6.000000,-0.590948 12.000000,0.000000 6.000000,0.590948 11.769423,2.341084 5.769423,1.750135 11.086554,4.592201 5.317131,2.842066 9.977635,6.666843 4.660504,3.824777 8.485281,8.485281 3.824777,4.660504 6.666843,9.977635 2.842066,5.317131 4.592201,11.086554 1.750135,5.769423 2.341084,11.769423 0.590948,6.000000 0.000000,12.000000 -0.590948,6.000000 -2.341084,11.769423 -1.750135,5.769423 -4.592201,11.086554 -2.842066,5.317131 -6.666843,9.977635 -3.824777,4.660504 -8.485281,8.485281 -4.660504,3.824777 -9.977635,6.666843 -5.317131,2.842066 -11.086554,4.592201 -5.769423,1.750135 -11.769423,2.341084 -6.000000,0.590948 -12.000000,0.000000 -6.000000,-0.590948 -11.769423,-2.341084 -5.769423,-1.750135 -11.086554,-4.592201 -5.317131,-2.842066 -9.977635,-6.666843 -4.660504,-3.824777 -8.485281,-8.485281 -3.824777,-4.660504 -6.666843,-9.977635 -2.842066,-5.317131 -4.592201,-11.086554 -1.750135,-5.769423 -2.341084,-11.769423 -0.590948,-6.000000 z" />
</g>
</symbol>
<symbol id="goute">
	<path transform="scale(12) translate(-5,-9)" d="M5,5 c0,4 -3,8 0,8 c3,0 0,-4 0,-8 z" />
</symbol>
<symbol id="humetty">
	<path d="M-35,-7 L-7,-7 L-7,-35 L7,-35 L7,-7 L35,-7 L35,7 L7,7 L7,35 L-7,35 L-7,7 L-35,7 z" />
</symbol>
<symbol id="flory">
<g transform="scale(.022) translate(-2000,-2000)">
<path d="M1778.9,3200
C1778.9,3266.79,1724.75,3320.93,1657.97,3320.93
C1591.18,3320.93,1537.04,3266.79,1537.04,3200
C1485.93,3242.08,1456.32,3304.81,1456.32,3371.02
C1456.32,3493.35,1555.49,3592.53,1677.83,3592.53
C1729.19,3592.53,1778.96,3574.68,1818.61,3542.03
C1818.61,3671.64,1887.76,3791.4,2000,3856.21
C2112.24,3791.4,2181.39,3671.64,2181.39,3542.03
C2221.04,3574.68,2270.81,3592.53,2322.17,3592.53
C2444.51,3592.53,2543.68,3493.35,2543.68,3371.02
C2543.68,3304.81,2514.07,3242.08,2462.96,3200
C2462.96,3266.79,2408.82,3320.93,2342.03,3320.93
C2275.25,3320.93,2221.1,3266.79,2221.1,3200
V2221.1
H3200
C3266.79,2221.1,3320.93,2275.25,3320.93,2342.03
C3320.93,2408.82,3266.79,2462.96,3200,2462.96
C3242.08,2514.07,3304.81,2543.68,3371.02,2543.68
C3493.35,2543.68,3592.53,2444.51,3592.53,2322.17
C3592.53,2270.81,3574.68,2221.04,3542.03,2181.39
C3671.64,2181.39,3791.4,2112.24,3856.21,2000
C3791.4,1887.76,3671.64,1818.61,3542.03,1818.61
C3574.68,1778.96,3592.53,1729.19,3592.53,1677.83
C3592.53,1555.49,3493.35,1456.32,3371.02,1456.32
C3304.81,1456.32,3242.08,1485.93,3200,1537.04
C3266.79,1537.04,3320.93,1591.18,3320.93,1657.97
C3320.93,1724.75,3266.79,1778.9,3200,1778.9
H2221.1
V800
C2221.1,733.214,2275.25,679.073,2342.03,679.073
C2408.82,679.073,2462.96,733.214,2462.96,800
C2514.07,757.922,2543.68,695.188,2543.68,628.984
C2543.68,506.648,2444.51,407.475,2322.17,407.475
C2270.81,407.475,2221.04,425.324,2181.39,457.969
C2181.39,328.36,2112.24,208.597,2000,143.793
C1887.76,208.597,1818.61,328.36,1818.61,457.969
C1778.96,425.324,1729.19,407.475,1677.83,407.475
C1555.49,407.475,1456.32,506.648,1456.32,628.984
C1456.32,695.188,1485.93,757.922,1537.04,800
C1537.04,733.214,1591.18,679.073,1657.97,679.073
C1724.75,679.073,1778.9,733.214,1778.9,800
V1778.9
H800
C733.214,1778.9,679.073,1724.75,679.073,1657.97
C679.073,1591.18,733.214,1537.04,800,1537.04
C757.922,1485.93,695.188,1456.32,628.984,1456.32
C506.648,1456.32,407.475,1555.49,407.475,1677.83
C407.475,1729.19,425.324,1778.96,457.969,1818.61
C328.36,1818.61,208.597,1887.76,143.793,2000
C208.597,2112.24,328.36,2181.39,457.969,2181.39
C425.324,2221.04,407.475,2270.81,407.475,2322.17
C407.475,2444.51,506.648,2543.68,628.984,2543.68
C695.188,2543.68,757.922,2514.07,800,2462.96
C733.214,2462.96,679.073,2408.82,679.073,2342.03
C679.073,2275.25,733.214,2221.1,800,2221.1
H1778.9Z"/>
</g>
</symbol>
<symbol id="crescent">
<path d="M -30 -30 A 30 30 0 0 0 30 -30 A 35 40 0 1 1 -30 -30 z"/>
</symbol>
<symbol id="escutcheon">
<path transform="scale(.7)" d="M -50 -50 V-14 C-50,46 0,60 0,60 C0,60 50,46 50,-14 V-50 z" />
</symbol>
<symbol id="shakefork">
<path d="M -40,-40 h10 L0,-13 L30,-40 h10 v10 L7,0 v40 l-7,7 l-7,-7 v-40 L-40,-30 z" />
</symbol>
<symbol id="question">
<g transform="scale(0.4) translate(-100,-100)">
<path d="M 184.73206,63.654877 C 184.73185,74.658450 180.92727,83.868738 173.31832,91.285786 C 169.57804,94.953733 161.96888,100.08870 150.49079,106.69068 C 141.20488,111.98871 135.59474,116.83837 133.66033,121.23969 L 133.27342,121.23969 L 130.95198,130.28700 L 61.115285,130.28700 L 61.115285,111.21434 C 61.115228,107.38355 64.597388,102.69691 71.561768,97.154304 C 82.137148,88.922192 88.650075,83.420450 91.100570,80.649123 C 98.064803,72.824521 101.54696,64.184810 101.54705,54.729810 C 101.54696,52.040218 99.805879,50.695354 96.323812,50.695220 C 91.809811,50.695354 90.004248,54.770722 90.907114,62.921279 L 16.040627,62.921279 L 16.040627,44.459925 C 16.040613,29.870273 25.003949,19.804143 42.930656,14.261489 C 55.569563,10.349322 74.850409,8.3931489 100.77324,8.3929700 C 156.74562,8.3931489 184.73185,20.211697 184.73206,43.848615 L 184.73206,63.654877 M 129.98472,192.64000 L 62.662914,192.64000 L 62.662914,137.01136 L 129.98472,137.01136 L 129.98472,192.64000" />
</g></symbol>
<symbol id="heart">
<g>
<path d="M 335.21875,651.49205 C 335.21875,619.81930 216.43749,539.21435 216.43750,484.06250 C 216.43750,428.91067 249.84911,414.87499 277.68750,414.87500 C 305.52589,414.87500 335.21876,444.44989 335.21875,481.67197 C 335.21876,444.44989 364.91161,414.87500 392.75000,414.87500 C 420.58838,414.87499 454.03125,428.91067 454.03125,484.06250 C 454.03126,539.21435 335.21875,619.81930 335.21875,651.49205 z " />
</g></symbol>
</svg>
