<?xml version="1.0" standalone="no"?>
<!DOCTYPE svg PUBLIC "-//W3C//DTD SVG .10//EN" "http://www.w3.org/TR/2001/REC-SVG-20010904/DTD/svg10.dtd">
<svg height="600" width="600" viewBox="0 0 600 600" xmlns:xlink="http://www.w3.org/1999/xlink" xmlns="http://www.w3.org/2000/svg">>
<title>Heraldic Cross Pattee (Patty, Formy)</title>
<desc>Heraldic Cross Pattee (Patty, Formy)</desc>
<symbol id="formy">
<g transform="scale(.15) translate(-300,-300)">
<path d="M30,144.097
C96.9686,223.907,195.815,270,300,270
C404.185,270,503.031,223.907,570,144.097
V455.903
C503.031,376.093,404.185,330,300,330
C195.815,330,96.9686,376.093,30,455.903Z"/>
<path d="M455.903,30
C376.093,96.9686,330,195.815,330,300
C330,404.185,376.093,503.031,455.903,570
H144.097
C223.907,503.031,270,404.185,270,300
C270,195.815,223.907,96.9686,144.097,30Z"/>
</g>
</symbol>
<symbol id="pommee">
<g transform="scale(.015) translate(-3000,-3000)">
<path d="M2700,3300
L1300,3300
C1192.82,3485.64,994.744,3600,780.385,3600
C449.014,3600,180.385,3331.37,180.385,3000
C180.385,2668.63,449.014,2400,780.385,2400
C994.744,2400,1192.82,2514.36,1300,2700
L2700,2700
L2700,1300
C2514.36,1192.82,2400,994.744,2400,780.385
C2400,449.014,2668.63,180.385,3000,180.385
C3331.37,180.385,3600,449.014,3600,780.385
C3600,994.744,3485.64,1192.82,3300,1300
L3300,2700
L4700,2700
C4807.18,2514.36,5005.26,2400,5219.62,2400
C5550.99,2400,5819.62,2668.63,5819.62,3000
C5819.62,3331.37,5550.99,3600,5219.62,3600
C5005.26,3600,4807.18,3485.64,4700,3300
L3300,3300
L3300,4700
C3485.64,4807.18,3600,5005.26,3600,5219.62
C3600,5550.99,3331.37,5819.62,3000,5819.62
C2668.63,5819.62,2400,5550.99,2400,5219.62
C2400,5005.26,2514.36,4807.18,2700,4700Z"/>
</g>
</symbol>
<symbol id="bottony">
<g transform="scale(.17) translate(-250,-250)">
<path transform="translate(15,15)" 
 d="M436.75,202c-6.465,0-12.487,1.881-17.564,5.115
c2.121-4.337,3.314-9.211,3.314-14.365c0-18.088-14.662-32.75-32.75-32.75
c-18.087,0-32.75,14.662-32.75,32.75c0,6.225,1.737,12.044,4.753,17
 H259.75
 V107.747c4.956,3.016,10.775,4.753,17,4.753c18.088,0,32.75-14.663,32.75-32.75
c0-18.087-14.662-32.75-32.75-32.75c-5.153,0-10.027,1.194-14.365,3.315
c3.234-5.077,5.115-11.1,5.115-17.565
 C267.5,14.663,252.838,0,234.75,0
 C216.663,0,202,14.663,202,32.75c0,6.465,1.881,12.488,5.115,17.564
 C202.777,48.194,197.904,47,192.75,47
 C174.663,47,160,61.663,160,79.75c0,18.087,14.663,32.75,32.75,32.75
c6.225,0,12.044-1.737,17-4.753
 V209.75
 H107.747c3.016-4.956,4.753-10.775,4.753-17c0-18.088-14.663-32.75-32.75-32.75
 C61.663,160,47,174.662,47,192.75c0,5.154,1.194,10.027,3.315,14.365
 C45.238,203.881,39.215,202,32.75,202
 C14.663,202,0,216.662,0,234.75c0,18.087,14.663,32.75,32.75,32.75
c6.465,0,12.488-1.881,17.564-5.115
 C48.194,266.723,47,271.596,47,276.75c0,18.087,14.663,32.75,32.75,32.75
c18.087,0,32.75-14.663,32.75-32.75c0-6.225-1.737-12.044-4.753-17
 H209.75v102.003c-4.956-3.016-10.775-4.753-17-4.753
c-18.087,0-32.75,14.663-32.75,32.75c0,18.088,14.663,32.75,32.75,32.75
c5.154,0,10.027-1.193,14.365-3.314c-3.234,5.077-5.115,11.1-5.115,17.564
c0,18.088,14.663,32.75,32.75,32.75c18.088,0,32.75-14.662,32.75-32.75
c0-6.465-1.881-12.487-5.115-17.564c4.338,2.121,9.212,3.314,14.365,3.314
c18.088,0,32.75-14.662,32.75-32.75c0-18.087-14.662-32.75-32.75-32.75
c-6.225,0-12.044,1.737-17,4.753
 V259.75h102.003c-3.016,4.956-4.753,10.775-4.753,17
c0,18.087,14.663,32.75,32.75,32.75c18.088,0,32.75-14.663,32.75-32.75
c0-5.154-1.193-10.027-3.314-14.365c5.077,3.234,11.1,5.115,17.564,5.115
c18.088,0,32.75-14.663,32.75-32.75
 C469.5,216.662,454.838,202,436.75,202z"/>
</g>
</symbol>
<symbol id="mullet3">
<g transform="scale(0.4) translate(-150,-650)">
	<path d="M 236.6623 699.8964 L 150.0239 670 L 63.4573 700.1035 L 132.6676 640.0207 L 149.8804 550.0001 L 167.3085 639.9793 L 236.6623 699.8964 z "/>
</g>
</symbol>
<symbol id="mullet4">
<g transform="scale(0.4) translate(-180, -250)">
	<path d="M 280 250 L 204.6558 272.7798 L 180 350 L 157.2202 274.6558 L 80 250 L 155.3442 227.2202 L 180 150 L 202.7798 225.3442 L 280 250 z "/>
</g>
</symbol>
<symbol id="mullet">
<g transform="scale(3.96,-3.96)">
	<path d="M 0 10 L 2.24514 3.0902 L 9.5106 3.0902 L 3.63274 -1.18035 L 5.87785 -8.0902 L 0 -3.81968 L -5.87787 -8.0902 L -3.63274 -1.18035 L -9.5106 3.0902 L -2.24514 3.0902 z"/>
</g>
</symbol>
<symbol id="mullet5">
<g transform="scale(3.96,-3.96)">
	<path d="M 0 10 L 2.24514 3.0902 L 9.5106 3.0902 L 3.63274 -1.18035 L 5.87785 -8.0902 L 0 -3.81968 L -5.87787 -8.0902 L -3.63274 -1.18035 L -9.5106 3.0902 L -2.24514 3.0902 z"/>
</g>
</symbol>
<symbol id="mullet6">
<g transform="scale(3.3)">
	<path d="M 7.34763812293e-16 -12.0 L 7.34763812293e-16 -12.0 L 3.46410161514 -6.0 L 10.3923048454 -6.0 L 6.92820323028 -7.69185074553e-16 L 10.3923048454 6.0 L 3.46410161514 6.0 L 7.34763812293e-16 12.0 L -3.46410161514 6.0 L -10.3923048454 6.0 L -6.92820323028 3.92517246785e-15 L -10.3923048454 -6.0 L -3.46410161514 -6.0 z"/>
</g>
</symbol>
<symbol id="mullet7">
<g transform="scale(3.3)">
	<path d="M 7.34763812293e-16 -12.0 L 7.34763812293e-16 -12.0 L 1.85821576364 -3.85862479265 L 9.38197778962 -7.4818776223 L 4.17537292021 -0.953001622182 L 11.6991349462 2.67025120748 L 3.34838910577 2.67025120748 L 5.20660486941 10.8116264148 L 2.62234168484e-16 4.28275041471 L -5.20660486941 10.8116264148 L -3.34838910577 2.67025120748 L -11.6991349462 2.67025120748 L -4.17537292021 -0.953001622182 L -9.38197778962 -7.4818776223 L -1.85821576364 -3.85862479265 z" />
</g>
</symbol>
<symbol id="mullet8">
<g transform="scale(3.3)">
	<path d="M 7.34763812293e-16 -12.0 L 7.34763812293e-16 -12.0 L 2.48528137424 -6.0 L 8.48528137424 -8.48528137424 L 6.0 -2.48528137424 L 12.0 0.0 L 6.0 2.48528137424 L 8.48528137424 8.48528137424 L 2.48528137424 6.0 L 7.34763812293e-16 12.0 L -2.48528137424 6.0 L -8.48528137424 8.48528137424 L -6.0 2.48528137424 L -12.0 1.46952762459e-15 L -6.0 -2.48528137424 L -8.48528137424 -8.48528137424 L -2.48528137424 -6.0 z" />
</g>
</symbol>
<symbol id="mullet9">
<g transform="scale(3.3)">
	<path d="M 7.34763812293e-16 -12.0 L 7.34763812293e-16 -12.0 L 1.42538819073 -3.916221868 L 7.71345131624 -9.19253331743 L 3.60920959633 -2.083778132 L 11.8176930361 -2.083778132 L 4.10424171991 0.723688550569 L 10.3923048454 6.0 L 2.67885352917 3.19253331743 L 4.10424171991 11.2763114494 L 2.55180794041e-16 4.16755626401 L -4.10424171991 11.2763114494 L -2.67885352917 3.19253331743 L -10.3923048454 6.0 L -4.10424171991 0.723688550569 L -11.8176930361 -2.083778132 L -3.60920959633 -2.083778132 L -7.71345131624 -9.19253331743 L -1.42538819073 -3.916221868 z"/>
</g>
</symbol>
<symbol id="mullet10">
<g transform="scale(3.3)">
	<path d="M 7.34763812293e-16 -12.0 L 7.34763812293e-16 -12.0 L 1.9495181774 -6.0 L 7.05342302751 -9.7082039325 L 5.10390485011 -3.7082039325 L 11.4126781955 -3.7082039325 L 6.30877334543 0.0 L 11.4126781955 3.7082039325 L 5.10390485011 3.7082039325 L 7.05342302751 9.7082039325 L 1.9495181774 6.0 L 7.34763812293e-16 12.0 L -1.9495181774 6.0 L -7.05342302751 9.7082039325 L -5.10390485011 3.7082039325 L -11.4126781955 3.7082039325 L -6.30877334543 7.72576392364e-16 L -11.4126781955 -3.7082039325 L -5.10390485011 -3.7082039325 L -7.05342302751 -9.7082039325 L -1.9495181774 -6.0 z" />
</g>
</symbol>
<symbol id="mullet11">
<g transform="scale(3.3)">
	<path d="M 7.34763812293e-16 -12.0 L 7.34763812293e-16 -12.0 L 1.15820724841 -3.94449164591 L 6.48768980947 -10.095042394 L 3.10689912737 -2.69214341878 L 10.9155839443 -4.98498015602 L 4.06917248569 -0.585058677963 L 11.8778573026 1.70777805928 L 3.7395123312 1.70777805928 L 9.06899489225 7.85832880734 L 2.22258343368 3.45840732928 L 3.3807906821 11.5139156834 L -6.61110221733e-16 4.11101670818 L -3.3807906821 11.5139156834 L -2.22258343368 3.45840732928 L -9.06899489225 7.85832880734 L -3.7395123312 1.70777805928 L -11.8778573026 1.70777805928 L -4.06917248569 -0.585058677963 L -10.9155839443 -4.98498015602 L -3.10689912737 -2.69214341878 L -6.48768980947 -10.095042394 L -1.15820724841 -3.94449164591 z" />
</g>
</symbol>
<symbol id="mullet12">
<g transform="scale(3.3)">
	<path d="M 7.34763812293e-16 -12.0 L 7.34763812293e-16 -12.0 L 1.60769515459 -6.0 L 6.0 -10.3923048454 L 4.39230484541 -4.39230484541 L 10.3923048454 -6.0 L 6.0 -1.60769515459 L 12.0 0.0 L 6.0 1.60769515459 L 10.3923048454 6.0 L 4.39230484541 4.39230484541 L 6.0 10.3923048454 L 1.60769515459 6.0 L 7.34763812293e-16 12.0 L -1.60769515459 6.0 L -6.0 10.3923048454 L -4.39230484541 4.39230484541 L -10.3923048454 6.0 L -6.0 1.60769515459 L -12.0 1.46952762459e-15 L -6.0 -1.60769515459 L -10.3923048454 -6.0 L -4.39230484541 -4.39230484541 L -6.0 -10.3923048454 L -1.60769515459 -6.0 z" />
</g>
</symbol>
<symbol id="goute">
	<path transform="scale(12) translate(-5,-9)" d="M5,5 c0,4 -3,8 0,8 c3,0 0,-4 0,-8 z" />
</symbol>
<symbol id="humetty">
	<path d="M-35,-7 L-7,-7 L-7,-35 L7,-35 L7,-7 L35,-7 L35,7 L7,7 L7,35 L-7,35 L-7,7 L-35,7 z" />
</symbol>
<symbol id="flory">
<g transform="scale(.022) translate(-2000,-2000)">
<path d="M1778.9,3200
C1778.9,3266.79,1724.75,3320.93,1657.97,3320.93
C1591.18,3320.93,1537.04,3266.79,1537.04,3200
C1485.93,3242.08,1456.32,3304.81,1456.32,3371.02
C1456.32,3493.35,1555.49,3592.53,1677.83,3592.53
C1729.19,3592.53,1778.96,3574.68,1818.61,3542.03
C1818.61,3671.64,1887.76,3791.4,2000,3856.21
C2112.24,3791.4,2181.39,3671.64,2181.39,3542.03
C2221.04,3574.68,2270.81,3592.53,2322.17,3592.53
C2444.51,3592.53,2543.68,3493.35,2543.68,3371.02
C2543.68,3304.81,2514.07,3242.08,2462.96,3200
C2462.96,3266.79,2408.82,3320.93,2342.03,3320.93
C2275.25,3320.93,2221.1,3266.79,2221.1,3200
V2221.1
H3200
C3266.79,2221.1,3320.93,2275.25,3320.93,2342.03
C3320.93,2408.82,3266.79,2462.96,3200,2462.96
C3242.08,2514.07,3304.81,2543.68,3371.02,2543.68
C3493.35,2543.68,3592.53,2444.51,3592.53,2322.17
C3592.53,2270.81,3574.68,2221.04,3542.03,2181.39
C3671.64,2181.39,3791.4,2112.24,3856.21,2000
C3791.4,1887.76,3671.64,1818.61,3542.03,1818.61
C3574.68,1778.96,3592.53,1729.19,3592.53,1677.83
C3592.53,1555.49,3493.35,1456.32,3371.02,1456.32
C3304.81,1456.32,3242.08,1485.93,3200,1537.04
C3266.79,1537.04,3320.93,1591.18,3320.93,1657.97
C3320.93,1724.75,3266.79,1778.9,3200,1778.9
H2221.1
V800
C2221.1,733.214,2275.25,679.073,2342.03,679.073
C2408.82,679.073,2462.96,733.214,2462.96,800
C2514.07,757.922,2543.68,695.188,2543.68,628.984
C2543.68,506.648,2444.51,407.475,2322.17,407.475
C2270.81,407.475,2221.04,425.324,2181.39,457.969
C2181.39,328.36,2112.24,208.597,2000,143.793
C1887.76,208.597,1818.61,328.36,1818.61,457.969
C1778.96,425.324,1729.19,407.475,1677.83,407.475
C1555.49,407.475,1456.32,506.648,1456.32,628.984
C1456.32,695.188,1485.93,757.922,1537.04,800
C1537.04,733.214,1591.18,679.073,1657.97,679.073
C1724.75,679.073,1778.9,733.214,1778.9,800
V1778.9
H800
C733.214,1778.9,679.073,1724.75,679.073,1657.97
C679.073,1591.18,733.214,1537.04,800,1537.04
C757.922,1485.93,695.188,1456.32,628.984,1456.32
C506.648,1456.32,407.475,1555.49,407.475,1677.83
C407.475,1729.19,425.324,1778.96,457.969,1818.61
C328.36,1818.61,208.597,1887.76,143.793,2000
C208.597,2112.24,328.36,2181.39,457.969,2181.39
C425.324,2221.04,407.475,2270.81,407.475,2322.17
C407.475,2444.51,506.648,2543.68,628.984,2543.68
C695.188,2543.68,757.922,2514.07,800,2462.96
C733.214,2462.96,679.073,2408.82,679.073,2342.03
C679.073,2275.25,733.214,2221.1,800,2221.1
H1778.9Z"/>
</g>
</symbol>
<symbol id="crescent">
<path d="M -30 -30 A 30 30 0 0 0 30 -30 A 35 40 0 1 1 -30 -30 z"/>
</symbol>
<symbol id="escutcheon">
<path transform="scale(.7)" d="M -50 -50 V-14 C-50,46 0,60 0,60 C0,60 50,46 50,-14 V-50 z" />
</symbol>
<symbol id="shakefork">
<path d="M -40,-40 h10 L0,-13 L30,-40 h10 v10 L7,0 v40 l-7,7 l-7,-7 v-40 L-40,-30 z" />
</symbol>
</svg>
